/* XPM */
static char *ba4d4bc4109340ee95bdd56c6ac9f38eKTRuRtXsy0rEU7k3[] = {
/* columns rows colors chars-per-pixel */
"64 64 204 2 ",
"   c #030106",
".  c #0C0C11",
"X  c #1F1E23",
"o  c #122020",
"O  c #262127",
"+  c #3C3B40",
"@  c #3C4747",
"#  c #454A4D",
"$  c #52474D",
"%  c #505558",
"&  c #7A6F73",
"*  c #7A7174",
"=  c #747577",
"-  c #8A676E",
";  c #827579",
":  c #85767A",
">  c #92717A",
",  c #92807E",
"<  c #8A7B80",
"1  c #9B7B84",
"2  c #997D8A",
"3  c #A47E8D",
"4  c #7A8486",
"5  c #8F8180",
"6  c #8A8787",
"7  c #928185",
"8  c #93848A",
"9  c #99838A",
"0  c #9A898B",
"q  c #938F91",
"w  c #9D8D92",
"e  c #899291",
"r  c #949596",
"t  c #999698",
"y  c #A1868D",
"u  c #A8828E",
"i  c #AA8592",
"p  c #A48C94",
"a  c #AA8E94",
"s  c #AD8E98",
"d  c #B58E9B",
"f  c #B7899A",
"g  c #A5959B",
"h  c #AC959D",
"j  c #A39B9E",
"k  c #AA9C9C",
"l  c #AD9092",
"z  c #B0939D",
"x  c #BB909E",
"c  c #AD9BA2",
"v  c #B19DA3",
"b  c #BA99A4",
"n  c #BB9FA8",
"m  c #9CA3A5",
"M  c #9AA9A7",
"N  c #ACA3A4",
"B  c #A5ABAB",
"V  c #ABA9AB",
"C  c #B2A2A5",
"Z  c #B3A9A7",
"A  c #B5A6AB",
"S  c #BCA4AC",
"D  c #B4ABAC",
"F  c #BAAAAE",
"G  c #A1B0AD",
"H  c #B8B0AE",
"J  c #B6ABB0",
"K  c #BBABB2",
"L  c #ABB3B3",
"P  c #A2B0B0",
"I  c #B5B2B3",
"U  c #BCB2B6",
"Y  c #BDB3B9",
"T  c #B6BBBA",
"R  c #BCBCBD",
"E  c #C48B9A",
"W  c #D08FA3",
"Q  c #C394A2",
"!  c #C79AA7",
"~  c #CA95A8",
"^  c #C7A1AD",
"/  c #C2AAAA",
"(  c #C2ABB3",
")  c #CAACB4",
"_  c #CAAAB5",
"`  c #D6A6B7",
"'  c #DEABBB",
"]  c #C6B3BA",
"[  c #CBB3BB",
"{  c #C3BCBD",
"}  c #CCBABF",
"|  c #C9B4B7",
" . c #D1B4BE",
".. c #D0BABC",
"X. c #ECA9BD",
"o. c #F0A6BD",
"O. c #C6BEC1",
"+. c #CBBDC2",
"@. c #D3BBC4",
"#. c #DBBDC6",
"$. c #DCBDCA",
"%. c #D9B4C3",
"&. c #E7AEC1",
"*. c #EAAEC1",
"=. c #F1ABC3",
"-. c #E4B4C4",
";. c #ECB4C5",
":. c #EFB5CA",
">. c #E7B8C8",
",. c #ECBCCB",
"<. c #E6BAC7",
"1. c #F3B5CB",
"2. c #FDB2C9",
"3. c #F1B8C9",
"4. c #F6BCD2",
"5. c #BCC5C4",
"6. c #C4C3C5",
"7. c #CBC3C3",
"8. c #CCC9C7",
"9. c #C6C6C9",
"0. c #CBC7CA",
"q. c #C7CBCB",
"w. c #CCCACD",
"e. c #C1CAC7",
"r. c #D5C5CC",
"t. c #DBC4CC",
"y. c #D3C9CD",
"u. c #DBC9CD",
"i. c #CCCBD0",
"p. c #D4CCD1",
"a. c #DBCBD1",
"s. c #DEC7D1",
"d. c #CCD3D3",
"f. c #CBD6D6",
"g. c #D4D2D3",
"h. c #DCD2D5",
"j. c #D4D5D8",
"k. c #DCD6DA",
"l. c #D4DADB",
"z. c #DBDBDC",
"x. c #D1DAD7",
"c. c #E3C5CF",
"v. c #EBC5D2",
"b. c #E3CDD4",
"n. c #EBCAD6",
"m. c #ECCED9",
"M. c #E1C5D1",
"N. c #F2C8D5",
"B. c #E4D4DA",
"V. c #EAD3DD",
"C. c #E3DCDE",
"Z. c #EBD9DE",
"A. c #F3D4DE",
"S. c #DCE0DF",
"D. c #DDDDE1",
"F. c #E3DDE1",
"G. c #ECDAE2",
"H. c #F4D5E1",
"J. c #F3DBE4",
"K. c #F9DAE5",
"L. c #F4DEE8",
"P. c #F8D7E2",
"I. c #DCE3E2",
"U. c #DEEAE8",
"Y. c #E3E4E4",
"T. c #EBE3E5",
"R. c #E4E9E7",
"E. c #E4E6EA",
"W. c #EAE6EA",
"Q. c #E3E9EB",
"!. c #ECEBEB",
"~. c #ECE8E7",
"^. c #F2E3E3",
"/. c #F5E3EC",
"(. c #FBE6EF",
"). c #F4EBEE",
"_. c #F9EBEE",
"`. c #F9E3E5",
"'. c #F5F1EE",
"]. c #EDEEF0",
"[. c #F6E7F1",
"{. c #FCE7F0",
"}. c #F4EDF1",
"|. c #FFEBF4",
" X c #FFE8F4",
".X c #FEEDF6",
"XX c #FDEAF2",
"oX c #FFEFF9",
"OX c #EBF5F4",
"+X c #F4F5F4",
"@X c #FEF1F6",
"#X c #FBF3F6",
"$X c #F5F9F6",
"%X c #FCFBF7",
"&X c #F2F6F9",
"*X c #FFF1FA",
"=X c #FFF5FD",
"-X c #FEF5FB",
";X c #F5FBFA",
":X c #FFFAFD",
">X c #FFFDFF",
",X c #FFFFFF",
"<X c gray99",
"1X c #FDFCFD",
/* pixels */
"(.(.(.(.(.(.(.{.(.(.(.(.(.(.(.(.(.(.(.(.(.(.(.(.(.(.(.(.(.(.(.(.(.(.(.(.(.(.(.(.(.(.(.(.(.(.(.(.(.(.(.(.(.(.(.(.(.(.(.(.{.(.(.(.",
"(.(.(.(.(.(.(.(.(.(.(.{.(.(.(.(.(.(.{.(.(.(.(.(.(.(.{.(.(.(.(.(.(.(.(.(.(.(.(.{.(.(.(.(.(.(.(.(.(.(.(.(.(.(.(.(.{.(.(.(.(.(.(.(.",
"(.(.(.(.(.(.{.(.(.(.(.(.(.(.(.{.(.(.(.(.(.(.(.(.(.(.(.(.(.(.(.(.(._.(.(.(.(.(.(.|.(.(.(.(.(.(.(._.(.(.(.{.(.(.(.(.(.(.(.(.{.(.(.",
"(.(.{.(.(.(.(.(.(.(.(.(.(.(.(.(.(.(.(.{.(.(.(.{.(.(.(.(.(.(.(.(.(.(.(.(.(.(.(.(.(.(.(.(.(.(.(.(.(.(.(.(.(.(.(.(.(.(.(.(.(.(.(.(.",
"(.(.(.(.(.(.(.(.(.(.(.(.(.(.(.(.(.(.(.(.(.(.{.(.(.(.(.(.|.(.(.(.(.(.(.(.(.{.(.(.{.(.(.(.(.(.(.(.(.(.(.(.(.(.(.(.(.(.(.(.(.(.(.(.",
"(.(.(.(.(.(.(.(.(.(.(.(.(.(.(.{.(.(.(.(.(.(.(.(.(.(.(.(.(.(.(.(.(.(.(.(.(.(.(.(.(.(.(.(.(.(.(.(.(.(.(.{.(.(.(.(.(.(.(.(.(.(.(.(.",
"(.(.{.(.(.(.(.(.(.(.(.{.(.(.(.(.(.(.(.(.(.(.(.(.{.(.(.(.(.(.(.(.(.{.(.(.(.(.(.(.(.(.(.(.(.{.(.(.(.(.(.(.(.(.(.(.(.{._.{.(.(.(.{.",
"(.(.(.(.{.(.(.(.(.(.(.(.(.(.(.(.(.(.{.(.(.(.(.(.(.(.(.(.(.(.(.(.(.(.(.{.(.(.(.(.(.(.(.(.(.(.(.{.(.(.(.(.(.(.{.(.(.(.(.(.(.(.(.(.",
"(.(.(.(.(.(._.(.{.(.(.(.(.(.(.(.(.(.{.(.(.(.(.(.(.(.(.{.(.(.(.(.(.(.(.(.(.(.(.(.(.(.(.(.(.(.(.(.(.(.(.(.(.(.(.(.(.(.(.(.(.(.(.(.",
"(.(.(.(.(.(.{.(.(.(.{.(.(.(.(.(.(.(.(.(.(.(.(.(.(.(.(.(.(.{.(.(.(.(.(.(.(.(.(.(.(.(.(.(.(.(.(.(.(.(.(.{.(.(.{.(.(.(.(.(.(.(.{.(.",
"(.(.(.(.(.(.(.(.(.(.(.(.(.(.(.(.(.(.(.(.(.(.(.(.(.(.(.(.(.(.(.(.(.(.(.(.(.(.(.(.(.(.(.(.(.(.(.(.(.(.(.(.(.(.(.(.(.(.(.(.(.(.(.(.",
"(.{.{.(.(.(.(.(.(.(.(.(.(.(.(.{.(.{._.(.(.(.{.(.(.(.(.(.(.(.(.(.(.(.(.{.(.(.(.(.(.(._.(.(.(.{.(._.(.(.(.(.(.(.(.(.(.(.{.(.(.(.(.",
"(.(.(.(.(.(.(.(.(.(.(.(.(.(.(.(.(.(.(.(.(.(.(.(.(.(.(.(.(.{.(.(.(.(.(.(.(.(.(.(.(.(.(.(.(.(.(.(.{.(.(.(.{.(.(.(.(.(.(.(.(.(.{.(.",
"(.(.(.(.(.(.{.(.(.(.(.{.(.(.{.(.{.(.(.(.(.(.(.(.(.{.(.(.(.(.(.(.(.(.(.(.|.(.(.(.(.(.(.(.(.(.(.(.(.(.(.(.(.(.(.(.(.(.(.(.(.(.(.(.",
"(.(.(.(.(.(.(.(.(.(.(.(.(.(.(.(.(.(.(.(.{.(.(.(.(.(.(.(.(.(.(.(.(.{.(.(.(.(.(.(.(.(.(.(.(.(.(.(.(.(.{.(.(.(.(.(.(.(.(.(.(.(.(.(.",
"(.(.{.(.(.(.(.{.(.(.(.(.(.(.(.(.(.(.(.(.(.(.(.(.{.(.(.(.(.(.(.(.(.(.(.(.(.(.(.(.(.(.{.(.(.{.(.(.(.(.(.(.(.(.(.(.(.{.{.(.(.(.(.(.",
"(.(.(.(.(.(.(.{.(.(.(.(.{.(.(.(.(.(.(.(.(.(.(.(.(.(.(.(.(.{.{.(.(.(.{.(.(.(.(.(.(.{.{.{.{.(.(.(.(.(.(.{.(.(.(.(.(.(.(.(.(.(.(.(.",
"(.(.(.(.(.(.(.(.(.(.(.(.(.(.{.(.(.(.(.(.(.(.{.(.(.(.(.(.(.(.(.(.(.(.(.(.(.(.(.[.(.{.{.{.(.(.(.(.(.(.(.(.(.{.(.(.(.(.(.(.(.{.(.(.",
"(.(.{.(.(.(.(.(.(.(.(.(.(.(.(.(.(.(.(.(.(.(.(.(.(.(.(.(.(.(.(.(.(.(.(.(.(.(.{.{.(.{.{.L.L.{.(.(.(.(.(.(.(.(.(.(.(.(.(.(.(.(.(.(.",
"(.(.(.(.(.(.(.(.(.(.{.(.(.(.(.(.(.(.(.{.(.(.(.(.(.{.(.(.(.(.(.(.(.(.(.(.(.(.{./.(.(.{.{.{.{.(.(.(.(.(.(.(.(.(.(.{.(.(.(.{.(.(.(.",
"(.(.(.(.(.(.(.(.(.(.(.(.(.(.(.(.(.(.(.(.(.(.{.(.(.(.(.(.(.(.(.(.L.{.{.{.(.(.(.(.(.(.(.(.(.(.(.(.(.(.{.(.(.(.(.(.(.(.(.(.(.(.(.(.",
"{.(.(.(.{.(.(.(.(.(.(.(.(.(.(.(.(.(.(.(.(.(.(.(.(.(.(.(.(.(.(.(.{.{.(.{.(.(.(.(.(.(.(.(.(.[.(.(.(.{.(.(.(.(.(.(.(.(.(.(.(.(.(.(.",
"(.(.(.(.{.(.(.(.{.(.(.(.(.(.(.{.(.(.(.(.(.(.(.(.(.{.(.(.(.(.(.(.(.(.(.(.(.{.(.(.(.{.(./.(.(.(.(.(.(.(.(.(.(.(.{.(.(.(.{.(.(.(.(.",
"(.(.(.(.(.(.(.(.(.(.(.{._.(.(.(.(.{.{.(.(.(.(.(.(.(.(.(.(.(.(.(.(.(.(.(.(.(.(.(.(.{.{.{.(.(.(.(.(.(.(.(.(.(.(.(.{.(.(.(.(.{._.(.",
"(.(.(.(.(.(.(.(.(.(.(.(.(.(.(.(.(.(.(.(.(.(.(.(.{.{.(.(.(.(.{.(.(.{.{.(.{.(.{.(.(.(.(.(.(.(.(.(.(.(.(.(.{.(.(.(.(.(.(.(.(.(.(.(.",
"(.(.(.(.(.(.(.(.(.{.(.(.(.(.(.(.(.(.(.(.(.{.(.(.(.(.(.{.{.(.(.(.L.{.{.{.{.(.(.(.(.(.(.{.(.(.(.(.(.(.{.(.(.(.(.(.(.(.(.{.(.(.(.(.",
"(.(.{.(.(.(.(.(.(.(.(.(.{.(.(.(.(.(.(.(.(.(.(.(.(.(.(.(.(.(.(.{. X X/./.{.{.(./.(.(.(.{.(.(.(.{.(.(.(.(.(.(.(.(.(.(.(.(.(.(.(.{.",
"(.(.(.(.{.(.(.(.{.(.(.(.(.(.(.(.(.(.{.(.(.(.(.(.(.{.(./.(.{.(.(.L.{. X{././.(.{.(.(.(.(.(.(.(.(.(.(.(.(.(.(.(.(.(.(.(.(.(.(.(.(.",
"(.(.(.(.(.(.(.(.(.(.(.(.(.(.(.(.(.(.{.(.(.(.(.(.(.(.(.(.(.(.(.(.@X{.{.{.{.{.(.{.(.(.(.(.(.(.(.(._.(.(.(.(.(.(.(.(.(.(.(.(.(.(.(.",
"_.(.(.{.(.(.(.(.(.(.(.{.(.(.(.(.(.(.(.(.(.(.(.(.(.(.(.|.(.(.{.|.{.F./.[.(.{.{.(.(.(.(.(.(.(.{.(.{.(.(.(.(.(.{.(.(.(.(.(.(.(.(.{.",
"{.(.(.(.(.(.(.(.(.(.(.(.(.(.(.(._.(.(.(.(.(.(.{.{.{./.{.(./.*X/.r.+./.*X/.L./.{.(.(.(.(.(.(.(.(.(.(.(.(.(.(.(.(.(.(.(.{.(.(.(.(.",
"(.(.(.(.(.(.{.(.(.(.(.(.(.(.{.(.{.(.(.(.(.(.(.(.(.{.(.(./.(.|.r.F.p.F..X/.{.{.(.(.{.(.(.(.(.(.(.(.(.(.{.(.(.(.{.(.(.(.(.(.(.(.(.",
"(.(.(.(.(.(.{.(.(.(.(.(.(.(.(.(.{.(.{.{.[.{./.(.(.(.(.oX[.-XV.J >XF.k.*X{.{.{./.(.{.{.(./.(.{.(.(.(.(.(.(.(.(.(.(.{.{.(.(.(.(.(.",
"(.(.(.(.(.(.(.(.(.(.(.(.(.(.(.(.{.{.{./.{.(.{. X{.{.(.L.oX$.v i.>XW.K B. X(.(.[.[.~.[.(.{.{.(.{.(.(.(.(.(.(.(.(.(.(.(.(.(.(.(.(.",
"(.(.(.{.(.(.(.(.(.(.{.(.(.(.(.(.{.{.{.{././..XW././.oXoXs.r.O.p F.Y S +.M. X(.(.[.(.{.(.(./.(.(.(.(.(.(.(.(.(.(.(.(.(.(.(.(.(.(.",
"(.(.(.(.(.(.(.(.{.(.(.(.(.(.(.(.{.L.{.*X|.*X(.).(.XXL. X+.s.+.c K 8 V.m. . XL.{.{.{.(.(.{./.{.{.(.(.(.(.(.{.(.(.(.(.(.(.(.(.{.(.",
"{.(.(.(.(.(.(.(.(.(.(.(.(.(.(.(.{.oX(.b.P.|.*X.X[.[./.=X%.B.s.D J c J.t.%.oX[././.).{. XoX X*X/.(.(.(.(.(.(.(.(.(.(.(.(.(.(.(.(.",
"(.(.(.(.{.(.(.(.(.(.(.(.(.(.(.(. XG.b.$.p K K p.-X}.{.{.G.| y.c Y c ] ] G.oX/..X>X@XG.V.m.M.B.*X(.(.(.(.(.(.(.(.(.(.(.{.(.(.(.(.",
"(.{.(.(.(.(.(.(.(.(.(.(.(.(.(.(.|.V.$.$. .) (.{ N }.|.*X|.).{ 9.:Xr.p.(.*X#X].#Xp.D 7.r.F K +.{.(.(.(.(.(.{.(.(.(.(.(.(.(.(.{.(.",
"(.(.(.(.(.(.(.(.(.{.(.(.(.(.(.(.-X+.c.n.[ a K >Xk.V C.} S U I !.>Xk.I O.7.).<XR 9.#X(.v K J.| (.(.(.(.{.(.(.(.(.(.(.(.(.(.(.(.(.",
"(.(.(.(.(.(.(.(./.(.(.(.(.(.(./.=Xv n.n.#. .; T.>X5.N h.@X>X<X;X;X<X>X!.9.I B z.>X).6 F t.J.S J.|.(.(.(.{.{.(.(.(.{.{.{.{.(.(.(.",
"(.(.(.(.(.(.{.(.(.(.(.(.(.(.(.(.|.v m.N.) n : { %X$X>X:X:X+X;X;X;X>X%X:X>X#XS.%X>XN g t.t.A.n Z.|.(.(.(.(.(.(.(.(.(.(.(.(.(.(.(.",
"(.(.(.(.(.(.(.(.(.(.(.(.(.(.(.(.@Xh n.A.P.J.A t >X;X;X<X>X;X<X;X&X%X;X:X:X;X>X>XT.< |  .<.K.z V.{.{.{.(.(.(.(.{.(.(.(.(.{.(.(.(.",
"(.(.(.{.(.(.(.(.(.(.(.|.(.(.(./.:Xc [ P.A.J.g T.<X!.R.$X>X>X$X<X>X%X:X:X#X~.!.>Xy.c P.A.A.A.s (.{.{.{.(.(.(.(.{.(.(.(.(.(.(.(.(.",
"(.(.(.(.(.(.{.(.(.(.(.{.(.(.(.(.-Xr.c H.K.v A >X6.r L $X<X<X>X;X;X%X;X=X:XD t z.:Xg #.H.H.#.p =X(.(.(.(.(.(.(.(.{.(.(.(.(.(.(.(.",
"(.(.{.(.(.(.(.(.(.(.{.(.(.{.{.{.^.).w Z.[ 0 :X-Xj.+X<X;X;X;X<X+X>X+X>X$X+X>X+X9.-XG.8 P.P.h @.=X(.(.(.(.{.{.(.(.(.(.(.(.(.(.(.(.",
"(.(.(.(.(.(.(.(.(.(.(.(./.{.{./.-X:Xk.0 C /.:X:X>X<X<X$X;X%X<X>X<X;X<X%X>X>X>X%X:X:XA S u.c -X}.|.(.(.(.(.{.(.(.(.(.(.(.(.{.(.(.",
"(.(.(.{._.(.(.(.(.(.{.(.(.|.(.G.} V j { @X:X#X>X+XB m Y.>X>X%X%X;X;X%X>X!.R q.&X>X%X:X} < h.;X).@X{.(.(.(.(.(.(.{.(.(.(.(.(.(.{.",
"(.(.{.(.(.(.(.(.(.{.(.(.{.L. X/.6.z.8.Y.%X:X-X<Xr # X + R.>X<X$X%X+X>XT.$ O % M &X:X:X#XO.q R k.Z.|.{.{.{./.{.(.(.(.{.{.(.(.(.(.",
"(.(.(.(.(.{.(.(.(.{.(.(.(.(.|.*XU g.>X;X>X;X%X;XV r .   = %X$X%X$X<X%X*   . 4 m &X>X+X>X>X:X>XV /.).).(.(.(.{.{.(.(.{.{.(.(.(.(.",
"(.(.(.(.(.(.(.(.{.{.(.{.{.(.{.|.r.j ;X;X;X;X>X<XQ.m @ @ e <XT.Z { '.#Xr @ X M l.<X&X<X+X%X>XY Y #X(.{.(./.{.(.(.(.(.(.L.(.(.(.(.",
"(.(.(.(.(.(.(.(.{.{.(.{.{.[.(.{.=Xr.[.&X;XR.l.l.d.P P P x.~.k 0 , N I.f.M M L l.I.Y.R.;X>Xg.8 =X|.[.{.{.(.(.(.(.(.(.(.(.(.(.(.(.",
"(.{.{.(.(.(.(.(.{.{.{.{.(.(.{.{.n.i v <X%X!.R.!.Q.U.f.5.5.g.k ) / C S.e.5.f.d.D.D.R.Y.~.>XF z b /.|.{.{.{./.(.(.(.(.(.(.(.(.(.(.",
"(.(.(.(.(.(.(.(.(.(.(.(.{.(.|.G.~ -.n s.>X'.W.g.9.D.z.q.6 7.} l l b.j 6 j.i.j.k.z.z.~.>Xu.0 v.d G.|././. X/.(.(.(.(.(.(.(.(.(.(.",
"(.(.(.(.(.(.(.{.{.(.(.(. X{.oX$.W 4.-.s +.T.B.+XF.p.w.9.8.k `./ | ^.H g.g.0.O.p.C.).).u.u -.>.x (.XX[.(.{.(.(.(.(.(.(.{.(.(.(.(.",
"(.(.(.(.(.(.(.(.(.(.{.(.{./.=X$.W 1.-.,.1 #.=Xy.i.F.].:X<X^.0 , , Z '.%X>X:X}.C.8.'.Z.1 ' 3.` z *X{.{.{.(.(.(.(.(.(.(.(.(.(.{.(.",
"(.(.{.{.(.{.{.{.(.(.(.(.(.(.*X#.f 1.1.&.,.1 ^ -X>X<X>X>X<X%X^.N Z '.%X<X<X>X>X:X>XF - <.-.-.d %. X{.(./.(.{.{.(.(.(.(.(.(.L.(. X",
"(.{.{.{.(.{.{.{.(.{.(.(.{.(. XV.3 ,.&.:.*.;.> : ~.OXq.T R 7.%X%X7.%Xd.T 8.6.R.T.0 1 Q E X.-.i {. X{.(.(.(.{.(.(.(.(. X(.(.(.(.(.",
"(.(.L.{.(.(.(.L./.{.(.(.{.(.{. X2 %.&.=.=.W ~ c * T S.I.Y.8.H '.^.7.I Y.U.I.R ; ( N.;.X.;.E  .=X[.{./.{.{.{.(.(.(.(.(.(.(.(.(.(.",
"(.{.{.{.{.(.(.(.(.{.(.{.(.(.(.=X( s 4.=.2.2.;.) U >X<X%X%X%XC F ..k '.$XOX;X:X} ^ >.X.;.-.i |.{.(./.(.(.(.(.(.(.(.(.(.(.(.(.(.(.",
"(.{.{.{.{.{.(.(.(.(.(.{./.{.[.|.oX2 ` 1.o.=.;.i @X%XE.:XB.B.p 9 y 2 a.l.;X].}.|.i >.;.1.f v.oX/.{.[.{.(./.(.(.(.(.(.(.{.(.(./.{.",
"(.(.{.{.{.{.(.(.{.(.{.{./.{.(.(.=XG.i ' ;.;.! S -X:XD.6.6 ; N } t.v * q e.5.+X:X! ! v.x _ *XL.oX{.{.(.(.(.(.(.(.{.(.(.{.(.(.(.(.",
"(.(.(.(.(.(.(.(.(.{.(.{.(.(.(.(./.=XV.b ^ <.h J.:X*X:XO.0.O.K F Z | h.F.R <X<X:Xb.p _ S XX}.[.[.{.{.(.(.(.(.(.(./.{.{.{.{.{.{.[.",
"L.(.(.(.(.(.(.(.(.{.(.(.).(.(.[.{./.@X|.@.S h :X=X&X>X9.}.>X>X:X<X:X:X}.i.<X;X:X|.0 |  X}.}.[.[.{.{.L.(.{.{.(.(.{.{.{.{.{.{.{.(."
};
