/* XPM */
static char *_b7abe9a8e0d42c6e3fd1888cabe8cdeKyO07dB37BtTBKCO[] = {
/* columns rows colors chars-per-pixel */
"64 64 215 2 ",
"   c #030102",
".  c #0A0102",
"X  c #050804",
"o  c #06070A",
"O  c #0C040A",
"+  c #04080B",
"@  c #150301",
"#  c #1C0D04",
"$  c #150909",
"%  c #17120B",
"&  c #1C1516",
"*  c #1A0A14",
"=  c #2B1E0E",
"-  c #321C0F",
";  c #291813",
":  c #3A1E1D",
">  c #2D241F",
",  c #251E22",
"<  c #311A22",
"1  c #3C2D2E",
"2  c #3B2C27",
"3  c #3E342A",
"4  c #3B383B",
"5  c #483A2B",
"6  c #492C30",
"7  c #483838",
"8  c #503D39",
"9  c #53463C",
"0  c #4F3542",
"q  c #444043",
"w  c #4E454B",
"e  c #5A4949",
"r  c #5C5447",
"t  c #6E584B",
"y  c #6C4F53",
"u  c #685658",
"i  c #725F59",
"p  c #73645A",
"a  c #7A6B5C",
"s  c #7A6457",
"d  c #695E62",
"f  c #7C5662",
"g  c #7A5964",
"h  c #6C6265",
"j  c #6C6369",
"k  c #7A6F62",
"l  c #7B656B",
"z  c #796A68",
"x  c #7D7466",
"c  c #806A5C",
"v  c #816C67",
"b  c #85756D",
"n  c #89796E",
"m  c #917B6D",
"M  c #8C6E78",
"N  c #946C7B",
"B  c #8A7E73",
"V  c #81767A",
"C  c #89787E",
"Z  c #93777B",
"A  c #8F837A",
"S  c #958478",
"D  c #A3887D",
"F  c #897F83",
"G  c #9C7B85",
"H  c #9B7E8A",
"J  c #9A7686",
"K  c #A37B8C",
"L  c #8E888A",
"P  c #9B8D84",
"I  c #9E8C8B",
"U  c #958587",
"Y  c #9E9186",
"T  c #9D8C92",
"R  c #A9808E",
"E  c #A2958B",
"W  c #AB958B",
"Q  c #A9988A",
"!  c #A58692",
"~  c #A38C91",
"^  c #AA8A95",
"/  c #AB8798",
"(  c #AC8C99",
")  c #B28998",
"_  c #AD929C",
"`  c #AA9C9A",
"'  c #A79993",
"]  c #B1939D",
"[  c #B9929F",
"{  c #B39D9C",
"}  c #B09E92",
"|  c #ADA295",
" . c #ABA299",
".. c #B3A296",
"X. c #B2A39D",
"o. c #B9A99A",
"O. c #AC99A2",
"+. c #B494A2",
"@. c #B59CA4",
"#. c #BC9DAA",
"$. c #B89EA7",
"%. c #B5A4A3",
"&. c #B5A9A3",
"*. c #BCABA5",
"=. c #B7A3AB",
"-. c #BBA3AA",
";. c #B5ABAD",
":. c #B9A9AE",
">. c #BBA5A7",
",. c #BCB2AA",
"<. c #BDAEB3",
"1. c #BCB3B4",
"2. c #BFB2B9",
"3. c #C3AD9E",
"4. c #C19DAC",
"5. c #C59EB1",
"6. c #C2AEA2",
"7. c #C5ADA8",
"8. c #C2B2AD",
"9. c #CCBAAC",
"0. c #C8B4A6",
"q. c #D1BAAC",
"w. c #C5A5B2",
"e. c #CBA5B3",
"r. c #C3ACB4",
"t. c #CBA9B6",
"y. c #D2AABA",
"u. c #C6B1B5",
"i. c #CBB6B4",
"p. c #CBBBB3",
"a. c #C6B3BA",
"s. c #CBB2BC",
"d. c #CCBBBB",
"f. c #C7B8B1",
"g. c #D1BBBD",
"h. c #D3B3BE",
"j. c #CEC0BD",
"k. c #DBC4BB",
"l. c #D7C5B9",
"z. c #E5CCBF",
"x. c #EACBBE",
"c. c #F0CCBC",
"v. c #D4AFC0",
"b. c #CDBAC0",
"n. c #D4B4C1",
"m. c #DCB4C3",
"M. c #D4BAC2",
"N. c #DBBBC6",
"B. c #E4BACB",
"V. c #E2B5C7",
"C. c #CCC0C0",
"Z. c #DDCDC3",
"A. c #DBC2CB",
"S. c #D4CACB",
"D. c #DFCFCD",
"F. c #D3C8C4",
"G. c #DED1C1",
"H. c #DFC8D0",
"J. c #DBD1D4",
"K. c #DAD5D9",
"L. c #E3CCC5",
"P. c #E3C2CC",
"I. c #E0CBC8",
"U. c #ECD3CA",
"Y. c #EEDACC",
"T. c #E9D4C6",
"R. c #F4D3C5",
"E. c #F3D5CA",
"W. c #F3DBCD",
"Q. c #FADDCE",
"!. c #E4C4D2",
"~. c #EBC4D4",
"^. c #E4CBD3",
"/. c #EBCCD6",
"(. c #ECCED9",
"). c #F0CCD8",
"_. c #EBD3DB",
"`. c #EBDCDC",
"'. c #E7D5D5",
"]. c #F5DFD1",
"[. c #F3D3DE",
"{. c #F2DDDC",
"}. c #F9D0DE",
"|. c #F2E1D3",
" X c #FAE3D6",
".X c #FEE4DA",
"XX c #FDEADF",
"oX c #F2E1D9",
"OX c #ECDEE3",
"+X c #EFD5E0",
"@X c #F3D5E2",
"#X c #F4DEE5",
"$X c #F8DEE7",
"%X c #F4DEE9",
"&X c #F9DEEB",
"*X c #EEE6EA",
"=X c #F4E1E6",
"-X c #F9E3E5",
";X c #F7E9E3",
":X c #FAEAE5",
">X c #F6E3EA",
",X c #F9E4EB",
"<X c #F6EAEC",
"1X c #FCE9EE",
"2X c #FFF1EE",
"3X c #FDE5F1",
"4X c #FEEAF1",
"5X c #FEEDF1",
"6X c #FFEFF5",
"7X c #FDEBF2",
"8X c #FEF1F5",
"9X c #FEF2F5",
"0X c #FFF4FA",
"qX c #FFFBFA",
"wX c #FBF5F3",
/* pixels */
",X,X,X,X,X,X,X,X,X,X,X,X,X,X,X,X1X>X>X>X,X1X,X,X,X,X,X,X,X,X,X,X>X,X,X<X,X,X,X<X,X,X,X,X,X,X,X$X,X,X,X,X,X,X,X,X,X,X,X,X,X,X,X,X",
",X,X,X,X,X,X,X,X>X,X,X,X,X,X,X,X,X>X1X>X>X>X,X,X,X,X,X,X,X,X,X,X,X<X,X>X,X>X,X,X,X,X,X,X,X,X,X,X,X,X,X,X,X,X,X,X,X,X,X,X,X,X,X,X",
",X,X,X,X,X,X,X,X,X,X,X,X,X,X,X,X1X>X1X,X1X>X,X,X,X,X,X,X,X,X,X,X,X,X,X,X,X,X,X,X,X,X,X,X,X,X,X,X,X,X,X,X,X,X,X,X,X>X,X,X,X,X,X,X",
",X,X,X,X,X,X,X,X,X,X,X,X,X,X,X,X,X>X>X>X>X,X,X,X,X,X,X,X,X,X,X,X,X,X,X,X,X,X,X,X,X-X,X,X,X,X,X,X,X,X,X,X,X,X,X,X,X,X,X,X,X,X,X,X",
",X,X>X,X,X,X,X,X,X,X,X,X,X,X,X,X>X,X,X,X,X,X,X,X,X,X,X,X>X,X,X,X,X,X,X,X,X,X,X,X,X,X,X,X,X,X,X,X,X,X,X,X,X,X,X,X,X,X,X,X,X,X,X,X",
",X,X,X,X,X,X,X,X,X,X,X,X,X,X>X,X,X,X<X,X,X,X,X,X,X,X,X,X,X,X,X,X,X,X,X,X,X,X,X>X,X,X,X,X,X,X,X,X,X,X,X,X,X,X,X,X,X,X,X,X,X,X,X,X",
",X,X,X,X,X,X,X,X,X,X,X,X,X,X,X,X,X>X,X,X,X,X,X,X,X,X,X,X,X,X,X,X,X,X,X,X,X,X,X,X,X,X,X,X<X,X,X,X,X,X,X,X,X,X,X,X,X,X,X,X,X,X,X,X",
",X,X,X,X,X,X,X,X,X,X,X,X,X,X,X,X,X,X,X,X,X,X,X,X,X,X,X,X,X,X,X,X,X,X,X,X,X,X,X,X,X,X,X,X,X,X,X,X,X,X,X,X,X,X,X,X,X,X,X,X,X,X>X,X",
",X,X,X,X,X,X,X,X,X,X,X,X,X,X,X,X,X,X,X,X,X,X,X,X,X#X,X,X,X,X,X,X,X,X,X,X,X>X%X,X,X,X,X,X,X,X,X,X,X,X,X,X,X,X,X,X,X,X,X,X>X,X,X,X",
",X,X,X,X,X,X,X,X,X,X,X>X,X,X,X,X,X,X,X,X,X>X,X,X,X,X,X7X=X#X6X#X,X7X>X1X>X7X,X,X,X&X,X,X,X,X>X,X,X,X,X,X,X,X>X-X,X,X,X,X,X,X,X,X",
",X,X,X,X,X,X,X>X,X,X,X,X,X,X,X,X,X,X,X,X,X,X,X,X,X#X,X,X,X1XOX3XOX<X=X>X>X>X7X>X,X,X,X,X,X,X,X,X,X,X,X,X,X,X,X,X,X,X,X,X,X,X,X,X",
",X,X,X,X,X,X-X,X,X,X,X,X,X,X,X,X,X,X,X,X,X,X,X,X,X7X>X>X1X,X>X*X<XOX<X>X=X3X>X>X,X,X,X,X,X,X,X,X,X,X,X,X,X,X,X,X,X,X,X,X,X,X,X,X",
",X,X,X,X,X,X,X,X,X,X,X,X,X,X,X,X,X,X,X,X,X,X,X,X,X,X>X,X>X#X7X>X<XqX0X<X>X>X>X>X,X,X,X,X,X,X,X,X,X,X,X,X,X,X,X,X,X,X,X>X,X,X,X,X",
",X,X,X,X,X,X,X,X,X,X,X,X,X,X,X,X,X,X,X,X,X,X,X,X,X,X,X=X0X=X#X7X2.j d ;.0X>X>X3X,X,X,X,X,X,X,X,X,X,X,X,X,X,X,X,X,X,X,X,X,X,X,X,X",
",X,X>X,X,X,X,X,X,X,X,X,X,X,X,X,X,X,X,X,X,X,X,X,X,X,X,X1X=X=X5XL   . . . x 0X%X>X,X,X,X,X,X,X,X,X,X,X,X,X,X,X,X,X,X,X,X,X,X,X,X,X",
",X,X,X,X,X,X,X,X,X,X>X,X,X,X,X,X,X,X,X,X>X-X,X,X,X>X,X=X,X,XN.: . O   . O 2.6X>X,X,X,X,X,X&X,X,X,X>X,X,X,X,X,X,X,X,X,X,X,X,X,X,X",
",X,X,X,X,X,X,X,X,X,X,X,X,X,X,X,X3X%X3X>X,X-X1X-X,X8X5X>X1X^.K [ @ .       j 0X%X3X>X-X1X-X,X,X,X,X,X,X,X,X,X,X,X,X,X,X,X>X,X,X,X",
",X,X,X,X,X,X,X,X,X,X,X,X,X,X,X,X>X3X3X$X,X-X{.1X@XO.<.`.7Xg.f N.u .   + + w 0X>X>X,X>X,X,X-X,X-X,X,X,X,X,X,X,X,X,X,X,X,X,X,X,X,X",
",X,X,X,X,X,X,X,X,X,X,X,X,X,X,X,X3X>X3X,X-X=X>X5XM.+.#.J @X/.g N.t.* . .   j 9X=X>X3X,X,X&X,X,X=X,X,X,X,X,X,X,X,X,X,X,X,X,X,X,X,X",
",X,X,X,X,X>X,X,X,X>X,X,X,X,X,X,X<X>X>X%X,X<X>X1X+.t.~.v.! _ M M.^.j . . & b.5X<X>X<X,X,X,X,X,X,X,X,X,X,X,X,X,X,X,X,X,X,X,X,X,X,X",
",X,X,X,X,X,X,X,X,X,X,X,X,X,X,X,X#X1X1X,XOX<X*X5X+.5.B.B./ ] r.=.d.r # ; X.wX'.;X>X>X%X3X3X>X%X,X,X,X,X,X,X,X,X,X,X,X,X>X,X,X,X,X",
",X,X,X,X,X,X,X,X,X,X,X,X,X,X,X,X-X1X$X-XwXwX*X0X#.4.V.V.~.+.l 6 @ 8 U.g...Y | ;X>X3X3X&X3X>X>X,X,X,X,X,X,X,X,X>X,X,X,X,X,X,X,X,X",
",X,X,X,X,X,X,X,X,X,X,X,X,X,X,X,X1X{.,X5X1.q , j O./ ~.y.P.6 ; 5 @ M :XR.Y.9.r ,.OX3X3X&X3X<X>X-X$X,X,X,X,X,X,X,X,X,X,X,X,X,X,X,X",
",X,X,X,X,X,X,X,X,X,X,X,X,X,X,X>X,X-X1XS.&   +   * 0 m.).y : L..X*.W E.E.0.9.E w '.&X3X&X>X<X;X<X,X,X,X,X,X,X,X,X,X,X,X,X,X,X,X,X",
",X,X,X,X,X,X,X,X,X,X$X,X,X,X,X,X$X$X0Xd     +   O . w u . Z .XR.k.k.Q.R.R.s x  .' 1X,X3X3X>X>X>X,X,X,X,X,X,X,X,X,X,X,X,X,X,X,X,X",
">X,X,X,X,X,X,X,X,X,X,X,X,X,X,X,X-X-X,X1           o . . . 0.Q.c.x.W 0.q.].5 @ F.&.u.,X3X%X>X1X,X,X,X,X,X,X,X,X,X,X,X,X,X,X,X,X,X",
",X,X,X,X,X,X,X,X,X,X,X,X,X,X,X,X,X>X=X,   o             X 3.Q.c.3.W D R.|.S % 5 D.%.8X-X,X>X#X>X,X,X>X,X,X,X,X,X,X,X,X,X,X,X,X>X",
",X,X,X,X,X,X,X,X,X,X,X,X,X,X,X,X,X1X6X7           X   X   o.Q.R.Q.c - W XX,.X.A p.{ {.1X>X7X3X>X,X,X,X,X,X,X,X,X,X,X,X,X,X,X,X,X",
",X,X,X,X,X,X,X,X,X,X,X,X,X,X,X,X>XOX0XT O .         +     k oXz.Q.m @ X S '.&.;XX.f.} `.,X%X6X%X,X,X,X,X,X,X,X,X,X,X,X,X,X,X,X,X",
",X,X,X,X,X,X,X,X,X,X,X,X,X,X,X>X*X7X>X,Xu . O     4 %     > U.Y.R.o.A X > S.j.,.f.|.f.Y 1X&X%X3X,X,X,X,X,X,X,X,X,X,X,X,X,X,X,X,X",
",X,X,X,X,X,X,X,X,X,X,X,X,X,X,X>X8XOX>X3X3XI w 4 L K.&   X . u oXE.9.o.F.,.;.'.P p 5 l.{ {.,X&X3X,X,X,X,X,X,X,X,X,X,X,X,X,X,X,X,X",
",X,X,X,X>X,X,X,X>X,X,X,X,X,X,X>X*X<X>X%X%X0X7X0X0XwXq   .   . x  X XE F.qX%.P p X # | W :X1X3X&X&X,X,X,X,X,X,X,X,X>X,X,X,X,X,X,X",
",X,X,X,X,X,X,X,X,X,X,X,X,X,X,X,X>X>X3X,X>X%X=X>X=X9XL     . @ . t z.].Q 9.} S @ . p P ,.8X#X3X&X,X,X,X,X,X,X,X,X,X,X,X,X,X,X,X,X",
",X,X,X,X,X,X,X,X,X>X,X,X,X,X,X,X1X>X=X,X3X<X3X3X>X8XK.&       2 s 0.Q.Y...3.o.= x | x >X>X1X$X,X,X,X,X,X,X,X,X,X,X,X,X,X,X,X,X,X",
",X,X,X,X,X,X,X,X,X,X,X,X,X,X,X,X1X-X,X,X>X%X&X&X%X<X5X1.% . u oXXXW.9.Y.|.z.Y.z.| x | wX>X-X,X1X,X,X,X,X,X,X,X,X,X,X,X,X,X,X,X,X",
",X,X,X,X,X,X,X,X,X,X,X,X,X,X,X,X-X,X,X>X&X3X3X&X3X%X*X9XS.7 g.-Xz.S 3.].Y.|.l.k Y S ,.`.;X=X,X,X,X,X,X,X,X,X,X,X,X,X,X,X,X,X,X,X",
",X,X,X,X,X,X,X,X,X,X,X,X,X,X,X,X,X-X,X,X3X3X&X&X3X3X>X*X<X`.T g.L.p.W } o...a A P A E A j.2X-X-X,X,X,X,X,X,X,X,X,X,X,X,X,X>X,X,X",
">X,X,X,X,X,X>X,X,X,X,X,X,X,X,X,X-X&X,X,X<X>X&X3X&X,X>X>X<X>X%.%.f.I.*.S A 9 S s P ;X;XX.` OX-X>X,X,X,X,X,X,X,X,X,X,X,X,X,X,X,X,X",
",X,X,X,X,X,X,X,X,X,X,X,X,X,X,X,X,X<X>X>X>X>X3X7X3X>X>X*X1Xd.I >.7.i.7.Z...v 9.D { f.,.*.X.`.1X-X,X,X,X,X,X,X,X,X,X,X,X,X,X,X,X,X",
",X,X,X,X,X,X,X,X,X,X,X,X,X,X,X>X>X<X>X>X3X7X+Xn.(.7X*X<X5Xd.l { %.-.P.g.i.'.oX8.U E ` ` F.1X-X,X,X,X,X,X,X,X,X,X,X,X,X,X,X,X,X,X",
",X,X,X,X,X,X,X,X,X,X,X,X,X,X,X,X>X1X,X=X6XA.T +.H (.6X5X=.:.[.[.[.#X[._._.(.#X>.p.`.J.`.,X,X,X,X,X,X,X,X,X,X,X,X,X,X,X,X,X,X,X,X",
",X,X,X,X,X,X,X>X,X,X,X,X,X,X,X,X>X>X7X7X_.J n.n.e.) !.-.a.@X/./.@X!.!.@X(.(.N.r.%.0X,X,X,X,X=X1X,X,X,X,X,X,X,X,X,X,X,X,X,X,X,X,X",
",X,X,X,X,X,X,X,X,X,X,X,X,X,X,X,X,X3X$X7X_ w.m.[ e.i ( _ (.(.).}.v./ +./ @X/.-.b.T 8X=X>X7X,X&X3X,X,X,X,X>X,X,X,X,X,X>X,X,X,X,X,X",
",X,X,X,X,X,X,X,X,X,X,X,X,X,X,X,X,X,X,X,XG B.K e.) N #.t.A.[.}.h.J y.v.J n.!.#._.T <X>X>X%X,X3X3X,X,X,X,X,X,X,X,X,X,X,X,X,X,X,X,X",
">X,X,X,X,X,X,X,X,X,X,X>X,X,X,X,X,X$X,X,X_ t.[ V.e.B.^ M./.~.}.J V.m.K +.4.h.=.#XI OX0X*X7X>X3X&X,X,X,X,X,X,X,X,X,X,X,X,X,X,X,X,X",
",X,X,X,X,X,X,X,X,X,X,X,X,X,X,X,X,X3X,X,Xa.+.N.B.P.!.#._ &X[.w.) V.B.K / +.s.a.:.j x K.*X7X>X>X%X,X,X,X,X,X,X,X,X,X>X,X,X,X,X,X,X",
",X,X,X,X,X,X,X,X,X,X,X,X,X,X,X,X,X,X>X7X7X@.( ] / ( +.l b.%X_ 4.B.V.N 4.M r.C 1.1.;.L 1.OX<X>X3X$X,X,X,X,X,X,X,X,X,X,X,X,X,X,X,X",
",X,X,X,X,X,X,X,X,X,X,X,X,X,X,X>X>X3X>X,X#X5X{.h.A.^.3X%X@.b.U w.~.) K K ! s.F ^.S.1.S.l b.7X%X3X,X,X,X,X,X,X,X,X,X,X,X,X,X,X$X,X",
",X,X,X,X,X,X,X,X,X,X,X,X,X,X,X,X,X,X1X>X,X,X,X7X7X7X,X,X7X,Xa.=.P.N n.Z _ $._.'.;.O.;.<.OX=X6X#X,X,X,X,X,X,X,X,X>X,X,X,X,X,X,X,X",
",X,X,X,X,X,X,X,X>X,X,X,X,X,X,X,X,X,X,X,X,X,X,X,X,X%X,X,X,X,X@X_ @.@.! w.0X7X6X,X5X7X7X1X,X,X,X,X,X,X,X,X,X,X,X,X,X,X,X,X,X,X,X,X",
",X,X,X,X,X,X,X,X,X,X,X,X,X,X,X,X,X,X,X,X>X,X,X,X,X,X,X,X>X,X0X!.@.=.A.,X>X%X=X,X#X>X>X7X=X,X,X,X,X,X,X,X,X,X,X,X,X,X,X,X,X,X,X,X",
",X,X,X,X,X,X,X,X,X,X,X,X,X,X,X,X,X,X,X,X,X,X>X,X,X,X,X,X,X>X=X5X6X3X7X,X,X,X>X,X<X>X>X,X,X,X$X,X,X,X,X,X,X,X,X,X,X,X,X,X,X,X,X,X",
",X,X,X>X,X,X,X,X,X,X,X,X,X,X,X,X,X,X,X,X,X,X,X,X,X#X,X,X,X7X@X,X#X,X$X3X%X,X7X>X>X>X,X>X,X,X,X,X,X,X,X,X,X,X,X,X,X,X,X,X,X,X,X>X",
",X,X,X,X,X,X,X,X,X,X,X,X,X,X-X,X,X,X,X,X,X,X,X,X3X7X,X,X,X,X,X,X,X,X3X,X-X,X=X,X,X7X>X1X$X1X,X,X,X,X,X,X,X,X,X,X,X,X,X,X,X,X,X,X",
",X,X,X,X,X,X,X,X,X,X,X,X,X,X>X,X,X,X,X,X,X1X,X,X#X,X#X,X,X,X,X1X,X$X$X,X7X>X,X>X,X1X>X,X$X,X&X&X,X,X,X,X,X,X,X,X,X,X,X,X,X,X,X,X",
",X,X,X,X,X,X,X,X,X,X,X,X,X,X,X,X,X,X,X,X,X,X$X,X,X1X1X,X,X,X,X,X,X,X,X,X>X7X>X1X>X,X,X,X,X,X,X,X,X,X,X,X,X,X,X,X,X,X,X,X,X,X,X,X",
",X,X,X,X,X,X,X,X,X,X,X,X,X,X,X,X,X,X,X,X,X,X,X,X,X,X,X,X,X,X,X,X,X,X,X,X,X,X,X,X,X,X,X,X,X,X,X,X,X,X,X,X,X,X,X,X,X,X,X,X,X,X,X,X",
",X,X,X,X,X,X,X,X,X,X,X,X,X,X,X,X,X,X,X,X,X,X,X,X,X,X,X,X,X,X,X,X,X,X,X,X,X,X,X,X,X,X,X,X,X,X,X,X,X,X,X,X,X,X,X,X,X,X,X,X,X,X,X,X",
",X,X,X,X,X,X,X,X,X,X,X,X,X,X,X,X,X,X,X,X,X,X,X,X,X,X,X,X,X,X,X,X,X,X,X,X,X,X,X,X,X,X,X,X,X,X,X,X,X,X,X,X,X,X,X,X,X,X,X,X,X,X,X,X",
",X,X,X,X>X,X,X,X,X,X,X>X,X,X,X,X,X,X,X,X,X,X,X,X,X,X,X,X,X,X,X,X,X,X,X,X,X,X,X,X,X,X,X,X,X,X,X,X,X,X,X,X,X>X,X,X,X,X>X,X,X,X,X,X",
",X,X,X,X,X,X,X,X>X,X,X,X,X,X$X,X,X,X,X,X,X,X,X,X,X,X,X,X,X,X,X,X,X,X,X,X,X,X,X,X,X,X,X,X,X,X,X,X,X,X,X,X,X,X,X,X,X,X,X,X,X,X,X,X",
",X,X,X,X,X,X,X,X,X,X,X,X,X,X,X,X,X,X,X,X,X,X,X,X,X,X,X,X,X,X,X,X,X,X,X,X,X,X,X,X,X,X>X,X,X,X,X,X,X,X,X,X$X,X,X,X,X,X,X,X,X,X,X,X",
",X,X,X,X,X,X,X,X,X,X,X,X,X,X,X,X,X,X,X,X,X,X,X,X,X,X,X-X,X,X,X,X,X,X,X,X,X,X,X,X,X,X,X,X,X>X>X,X,X,X,X,X,X,X,X,X,X,X,X,X>X,X,X,X",
",X,X,X,X,X,X,X,X,X,X,X,X,X,X,X,X,X,X,X,X,X,X,X,X,X,X,X,X,X,X,X,X,X&X&X,X,X,X&X,X,X,X,X,X,X,X,X>X,X,X,X,X,X,X,X,X,X,X,X,X,X,X,X,X"
};
