/* XPM */
static char *e32867016a294269f067401d9e51b18fkjnwOw4QPqgLQKNF[] = {
/* columns rows colors chars-per-pixel */
"64 64 202 2 ",
"   c #6D4E5D",
".  c #6C5461",
"X  c #746466",
"o  c #776269",
"O  c #836A75",
"+  c #896C75",
"@  c #856978",
"#  c #8A6C7B",
"$  c #837175",
"%  c #8B7276",
"&  c #8A737C",
"*  c #8D7A7C",
"=  c #92757B",
"-  c #947C7F",
";  c #927384",
":  c #937B83",
">  c #9B7F83",
",  c #9B7D8B",
"<  c #A27B8E",
"1  c #A77D91",
"2  c #958284",
"3  c #998386",
"4  c #978088",
"5  c #9C848A",
"6  c #9E898D",
"7  c #9D8690",
"8  c #9F8C93",
"9  c #9F9191",
"0  c #A08186",
"q  c #A3858C",
"w  c #A88589",
"e  c #A28B8E",
"r  c #AA8B8E",
"t  c #A28594",
"y  c #A98496",
"u  c #A48C93",
"i  c #AB8E95",
"p  c #A88798",
"a  c #A58D99",
"s  c #AD8C9C",
"d  c #B28E92",
"f  c #B18C9E",
"g  c #B1839D",
"h  c #A59294",
"j  c #AB9395",
"k  c #AC949A",
"l  c #AC999C",
"z  c #B4969A",
"x  c #B39A9E",
"c  c #B89A9F",
"v  c #B28BA0",
"b  c #AB93A0",
"n  c #AF9FA2",
"m  c #B393A2",
"M  c #BA94A7",
"N  c #B39DA2",
"B  c #BA9DA3",
"V  c #BB94A8",
"C  c #B69CA9",
"Z  c #BE9EAE",
"A  c #B6A3A6",
"S  c #BBA3A6",
"D  c #B6A5AA",
"F  c #BBA6AA",
"G  c #B6A8A8",
"H  c #BCAAAC",
"J  c #BDA4B1",
"K  c #BEAAB1",
"L  c #C19EA4",
"P  c #C396AD",
"I  c #C69AB2",
"U  c #CB9DB7",
"Y  c #C0A1A7",
"T  c #C2A5AA",
"R  c #CBA6AD",
"E  c #C2AAAE",
"W  c #C4A3B4",
"Q  c #C3ADB3",
"!  c #CDADB3",
"~  c #CEA7BC",
"^  c #CCAABC",
"/  c #C3B0B5",
"(  c #CAB2B5",
")  c #C4B2B9",
"_  c #CDB5BB",
"`  c #CEBBBD",
"'  c #D2B3B5",
"]  c #D3B6BB",
"[  c #D3B9BE",
"{  c #DBAFC6",
"}  c #CDB6C0",
"|  c #CDBBC1",
" . c #D4B4C3",
".. c #DAB3C6",
"X. c #D4BCC3",
"o. c #DABEC2",
"O. c #DCBCCB",
"+. c #E2BEC2",
"@. c #E3B7CE",
"#. c #E4BFD3",
"$. c #E9BFD5",
"%. c #D3C2C5",
"&. c #DBC3C6",
"*. c #D6C3CB",
"=. c #DBC6CB",
"-. c #D7C9C9",
";. c #DCC9CD",
":. c #DFC1D0",
">. c #DECDD2",
",. c #E3C2C6",
"<. c #EBC1C6",
"1. c #E2C6CB",
"2. c #ECC4CB",
"3. c #E3CBCE",
"4. c #ECCACE",
"5. c #F1C0C6",
"6. c #F2C5CC",
"7. c #F8C6CD",
"8. c #F4C9CF",
"9. c #F8C9CF",
"0. c #E0C4D3",
"q. c #ECC4D7",
"w. c #E4CCD3",
"e. c #ECCDD3",
"r. c #E7CDDA",
"t. c #ECCCDC",
"y. c #EDC3D9",
"u. c #F2C7D0",
"i. c #F9C7D0",
"p. c #F3CCD3",
"a. c #F9CCD4",
"s. c #F0C6DC",
"d. c #F4CDDF",
"f. c #E5D2D5",
"g. c #ECD2D5",
"h. c #E5D3D9",
"j. c #EBD5DB",
"k. c #EDD9DC",
"l. c #F3D2D6",
"z. c #F9D2D7",
"x. c #F4D4DA",
"c. c #F9D4DB",
"v. c #F3DCDD",
"b. c #F9DADE",
"n. c #F5E0DE",
"m. c #F8CAE4",
"M. c #F4CDE2",
"N. c #EFD0E0",
"B. c #EEDCE2",
"V. c #F4D4E3",
"C. c #F4DDE3",
"Z. c #FBDDE3",
"A. c #F4DFE8",
"S. c #FDDDEF",
"D. c #F5E1E5",
"F. c #FAE3E4",
"G. c #FDE8E7",
"H. c #F6E4EA",
"J. c #FDE3EE",
"K. c #FDE3EC",
"L. c #F8E4ED",
"P. c #F9E4ED",
"I. c #FBE4EC",
"U. c #FAE5EC",
"Y. c #F9E6EC",
"T. c #F8E7ED",
"R. c #FBE6ED",
"E. c #FAE7ED",
"W. c #F9E5EE",
"Q. c #F8E4EF",
"!. c #FBE4EE",
"~. c #FAE5EE",
"^. c #FBE6EF",
"/. c #FDE7EC",
"(. c #FDE6EE",
"). c #FAE5EC",
"_. c #FBE8EE",
"`. c #FAE9EF",
"'. c #FAE9EE",
"]. c #FDE9ED",
"[. c #FCE9EF",
"{. c #FDE8EF",
"}. c #FFE9EF",
"|. c #FFEAEE",
" X c #FCE9EE",
".X c #FBE7F1",
"XX c #FCE6F1",
"oX c #FDE8F1",
"OX c #FEE9F0",
"+X c #FFEBF1",
"@X c #FEEAF2",
"#X c #FFECF0",
"$X c #FFEDF3",
"%X c #FEEEF1",
"&X c #FFEFF4",
"*X c #FFEDF4",
"=X c #FEEBF2",
"-X c #FFEDFA",
";X c #FFF1F6",
":X c #FFF0F4",
">X c #FFF2F9",
",X c #FFF3FA",
/* pixels */
"U.U.U.U.U.U.U.U.U.U.U.U.U.U.U.U.Y.Y.).).I.I.K.I.I.).).).I.I.(.K.K.K.K.(.).U.U.U.Y.Y.).).(.U.K.XXP.U.U.U.U.U.U.U.U.U.U.U.U.U.U.U.",
"U.U.U.U.U.U.U.U.U.U.U.U.U.U.U.U.).T.).).K.I.K.I.I.).).).I.I.(.K.K.(.K.H.U.U.T.U.Y.Y.).).P.(.K.U.P.U.U.U.U.U.U.U.U.U.U.U.U.U.U.U.",
"U.U.U.U.U.U.U.U.U.U.U.U.U.U.U.U.T.).U.U.K.K.I.I.U.).).).I.I.I.I.K.K.H.).U.).).).).).).).K.U.P.K.U.U.U.U.U.U.U.U.U.U.U.U.U.U.U.U.",
"U.U.U.U.U.U.U.U.U.U.U.U.U.U.U.U.).T.U.).I.K.I.I.U.Y.Y.Y.I.I.I.I.P.).(.).U.).).).).).).).P.K.K.).U.U.U.U.U.U.U.U.U.U.U.U.U.U.U.U.",
"U.U.U.U.U.U.U.U.U.U.U.U.U.U.U.U.T.).).).K.P.U.U.U.`.T.T.T.H.I.I.).).T.).U.U.U.U.I.I.I.I.).).).).U.U.U.U.U.U.U.U.U.U.U.U.U.U.U.U.",
"U.U.U.U.U.U.U.U.U.U.U.U.U.U.U.U.U.T.).).U.U.(.U.).).T.T.I.H.I.).T.T.).T.U.U.U.U.I.I.I.I.).).).).U.U.U.U.U.U.U.U.U.U.U.U.U.U.U.U.",
"U.U.U.U.U.U.U.U.U.U.U.U.U.U.U.U.U.U.U.U.K.U.U.U.).T.T.D.I.).I.).).T.U.U.).).U.P.I.I.I.I.F.Y.T.H.U.U.U.U.U.U.U.U.U.U.U.U.U.U.U.U.",
"U.U.U.U.U.U.U.U.U.U.U.U.U.U.U.U.U.U.U.U.K.P.U.U.T.T.T.T.F.).F.I.T.T.U.).).(.K.H.I.I.I.).Y.Y.G.Y.U.U.U.U.U.U.U.U.U.U.U.U.U.U.U.U.",
"U.U.U.U.U.U.U.U.U.U.U.U.U.U.U.U.T.H.Y.).).).U.U.D.T.T.T.|.H.|.|.F.`.H.F.U.).H.K.K.K.U.U.).).G.Y.U.U.U.U.U.U.U.U.U.U.U.U.U.U.U.U.",
"U.U.U.U.U.U.U.U.U.U.U.U.U.U.U.U.G.Y.).).I.).U.U.&XD.T.Y.D.|.1.[ ).D.:XD.K.P.(.(.U.P.U.U.Y.F.F.Y.U.U.U.U.U.U.U.U.U.U.U.U.U.U.U.U.",
"U.U.U.U.U.U.U.U.U.U.U.U.U.U.U.U.F.Y.).).I.I.U.U.D.T.$XF.|.( j x _ ;Xv.oXH.OX).)..XU.U.U.).).).).U.U.U.U.U.U.U.U.U.U.U.U.U.U.U.U.",
"U.U.U.U.U.U.U.U.U.U.U.U.U.U.U.U.H.).).).I.I.U.U.U.`.H.|.g.q g.g.j 3.$XF.(.H.D.{.U.U.U.U.).).F.).U.U.U.U.U.U.U.U.U.U.U.U.U.U.U.U.",
"U.U.U.U.U.U.U.U.U.U.U.U.U.U.U.U.G.T.T.).K.P..XU.U.C.`.$X' S l.4.,.r [ :XF.F.oX).U..XT.U.U.U.K.F.U.U.U.U.U.U.U.U.U.U.U.U.U.U.U.U.",
"U.U.U.U.U.U.U.U.U.U.U.U.U.U.U.U.Y.Y.).).U.K.P.P.T.oXF.{.] R x.4.e.4.- ! $XK.U.U.U.P.T..XU.U.).K.U.U.U.U.U.U.U.U.U.U.U.U.U.U.U.U.",
"U.U.U.U.U.U.U.U.U.U.U.U.U.U.U.U.).F.U.U.P.K.U..X(.H.(.$X1.c p.4.2.l.g.= [ &XC.oXQ.Q.T.Q.U.P.K.P.U.U.U.U.U.U.U.U.U.U.U.U.U.U.U.U.",
"U.U.U.U.U.U.U.U.U.U.U.U.U.U.U.U.).).U.U.U.U.U.(.H.{.C.K.I.B 2.p.8.<.l.,.= F.oXH.Q.T.Q.U.U.P.P.K.U.U.U.U.U.U.U.U.U.U.U.U.U.U.U.U.",
"U.U.U.U.U.U.U.U.U.U.U.U.U.U.U.U.U.U.).U.U.U.U.U.`.D.(.I.Z.R q.6.8.6.2.c.t _ (.T..X.XXXP.U.U.(.).U.OXP.Q.Q.U.U.H.K.K.K.).).U.T.T.",
"U.U.U.U.U.U.U.U.U.U.U.U.U.U.U.U.U.U.).(.U.U.U.U.).{.).$XR R a.6.5.6.u.p.c B >XT.Q..XA.P.OXQ.C.`.P.P.P..X.XT.H.H.P.K.K.K.).).T.T.",
"U.U.U.U.U.U.U.U.U.U.U.U.U.U.U.U.P.H.K.H.).).U.T.`.C.$Xb.d p.p.6.i.i.2.Z.Y B ,XH.Q.Q.T.H.Q.U.{.`.(.H.H.{.D.T.|.`.K.K.U.).).).T.T.",
"U.U.U.U.U.U.U.U.U.U.U.U.U.U.U.U.K.).(.K.).).).).).T.).X.Y x.2.u.<.a.2.p.T S |.`.U.H.$XoXU.`.).D.H.H.U.T.`.;XT.D.U.U.P.K.).).).H.",
"U.U.U.U.U.U.U.U.U.U.U.U.U.U.U.U.(.K.(.K.U.U.U.U.D.`.;XQ B x.4.8.p.6.p.x.x [ G.H.U.T.{.I.n.D.{.|.oX$X|.;X%.l '.T.).).K.(.H.(.).).",
"U.U.U.U.U.U.U.U.U.U.U.U.U.U.U.U.H.H.K.H.U.U.).T.T.T.{.X.B x.,.c.,.,.] [ 6 D.;XG.oXD.` q > e e j ( 1.3.A l 9 %.:XU.).).H.K.H.).).",
"U.U.U.U.U.U.U.U.U.U.U.U.U.U.U.U.K.K.K.K.).).).).T.D.$XD.r 1.z.B w c c j e j H ).k.5 e o.3.,.+.' R z z E k./ ;.|.U.T.(.K.K.P.).).",
"U.U.U.U.U.U.U.U.U.U.U.U.U.U.U.U.K.U.K.K.).).).T.Y.T.H.|.] N 0 r b.F.G.|.G.f.Q j > ( b.a.2.l.8.p.z.z.p.l.g.u f.{.T.).H.(.H.U.).).",
"U.U.U.U.U.U.U.U.).).(.(.).).U.).H.(.P.H.I.(.).).T.T.T.D.%Xj ' F.b.n.v.n.` n.%Xo.e l.<.8.8.6.7.6.8.6.6.q.x.= x.{.).).U.U.U.U.U.U.",
"U.U.U.U.U.U.U.U.H.U.U.).H.).U.{.K.(.K.K.(.I.H.).`.D.F.$X%.E G.v.Z.n.H.D.%.f.n.|.c ! l.2.6.6.7.7.8.i.<.p.] q {.(.).).U.U.U.U.U.U.",
"U.U.U.U.U.U.U.U.U.(.U.).U.oXU.U.).(.H.K.I.I.).`.T.'.:XB.h f.v.( F.n.k.F.G.n.k.G.,.d z.2.a.9.7.7.5.i.6.a.z Y -XC.).(.).).Y.Y.).T.",
"U.U.U.U.U.U.U.U.U.(.H.H.(.U.H.U.).(.P.K.I.).).{.`.h.K l x S l g.b.H.F.F.k.n.G.v.l.w 8.6.8.7.5.9.i.8.e.p.% x.OX(.H.K.).).).Y.T.F.",
"U.U.U.U.U.U.U.U.H.U.(.H.H.H.U.(.T.).F.H.U.K.U.oX;.n >.G j.` / %X( S ;.v.n.n.n.n.b.w 4.4.<.8.8.6.2.<.b.q E ;XU.H.P.XXP.U.).).).Y.",
"U.U.U.U.U.U.U.U.(.H.U.OX(.(.(.P.T.).T.).(.U.U.$X) ;.B.9 G n 1.F.3.[ 1.v.D.n.k.F.v.r 4.z.4.4.6.4.l.Z.z e $XU.C.oXK.U.K.U.).).T.G.",
"U.U.U.U.U.U.U.U.(.H.H.(.H.U.(.D.T.T.T.).U.P.U.$XK >.@X| H k.F.( +.G.|.F.v.k.G.n.n.S j ' g.l.g.,.( - h D.T.T.H.P..XP.K.K.).).F.).",
"U.U.U.U.U.U.U.U.(.H.OXH.r.g.).`.).).H.).U.H.U.oX%.G D.D.h $ E g.b.b.v.D.b.n.n.n.b.G.- = % + = = e -.|.Y.`.D.Q..XXXK.U.).).F.).).",
").).).).).).).T.T.T.@X| | T.{.oX).U.U.Q..X.XT.`.T.h f.n.k.k.n.n.n.F.b.F.F.b.Z.b.@X-.4 ,Xk.h.h.(.$X{.{.).).).T.).).).U.U.U.U.U.U.",
").).).).).).T.).T.:X*.} ,X`.k.| C.oX.XU..XC.T.B.:X| Q F.3.G.n.k.n.k.n.l.F.Z.v.{.A.o >.`.T.;XU.U.U.U.).).).).H.H.).).U.U.U.U.U.U.",
").).).).).).).T.).`.k.A.`.B.K B.oXH.D.oXoX$X>X;X'.|.h &.|.n.n.G.G.n.F.F.x.I.oX_ o %.`.H.T.D.U.U.H.H.).).).U.).).).U.U.U.U.U.U.U.",
").).).).).).T.).).).U.{.T.Q B.$X).oX$XoXj.;.Q F n n l 9 F.G.n.k.n.n.k.F.F.&.u 5 B.,XT.D.T.T.T.U.).).).).U.(.).).).).U.U.U.U.U.U.",
").).).).).).).T.Y.T.D.|.B.f.&XD.{.B.` G F / _ -.f.D.D.e H n.G.%X|.:XF.j.F j X.&X{.).D.T.`.U.oXA.).).I.).).H.).H.U.U.U.U.U.U.U.U.",
").).).).).).T.).Y.Y.{.T.H.T.H.oXk.l %.k.D.F.$X{.|.F.2 l n % 2 * 2 3 A l o.oXoXH.oXk.T.&XC.(.K.K.).).H.).K.H.).(.U.U.U.U.U.U.U.U.",
").).).).).).T.).).D.`.T.oXoXT.&XH f.$Xj.v.H.w.[ ! 3 % 6 h x l N A G 5 6 D.oX(.).T.{.U.H.oXU.(.H.).).(.).).I.I.).U.U.U.U.U.U.U.U.",
"U.).).).).).).).T.Y.T.Y.T.D.&XX.n -.h A j : E Q X.w.F.F.{.|.F.oXI.:X5 O k.).T.).T.U.).`.D.{.H.(.).).).).).H.).).U.U.U.U.U.U.U.U.",
"U.U.U.U.U.U.U.`.Y.).Y.T.{.Y.h.G G 9 %.G.9 >.|.|.oX{.I.K.F.Z.A.A.).w.t N K ,XQ.T.T.T.H.T.OXH.K.P.U.U.U.U.U.U.U.U.U.U.U.U.U.U.U.U.",
"U.U.U.U.U.U.).T.).{.D.`.D.$X| G k.G k.` -.:X3.&.[ [ 3.1.w.r.g.r.o.& 5 a 4 ,XB.-XH.T.Q.T.H.K.K.K.U.U.U.U.U.U.U.U.U.U.U.U.U.U.U.U.",
"U.U.U.U.).).T.).T.`.T.T.T.>XF _ :Xf.H 9 G F 3 x S < + u = @ # #   # J } 8 -XQ.Q.oX).`.U.H.K.).U.U.U.U.U.U.U.U.U.U.U.U.U.U.U.U.U.",
"U.U.U.U.).).).T.).D.`.T.`.$X| H T.H.G.G ( ( S E X.x...Z O. .f M W m a b & -X*.B.T.=.U.H.H.U.).(.U.U.U.U.U.U.U.U.U.U.U.U.U.U.U.U.",
").).).).).).).T.).T.).|.T.T.'.h >.D.G.G C.[ E k k B d.O.f @...M  .I Z  .8 -X| h.T.Q U.P.(.P.D.`.U.U.U.U.U.U.U.U.U.U.U.U.U.U.U.U.",
").).).).).).T.).).H.).).D.U.;X%.h D.Y.* l -.k.w.W @ , d.#.1 $.{ V M.^ < b ,X) h.`./ OX(.oXU.T.).U.U.U.U.U.U.U.U.U.U.U.U.U.U.U.U.",
").).).).).).).T.`.T.{.D.U.$XD.;XA l ).& 5 B.{.Z.(.Z.f y y.@.g m.I I S., J ,XD A.C.X.U.H.).(.U.U.U.U.U.U.U.U.U.U.U.U.U.U.U.U.U.U.",
").).).).).).T.).).`.U.`.H.T.`.F.|.H l : k > w.K.V.A.&X^ < d.P U s.v #.; V.Q.K Q.T.D.&XU.H.(.`.).U.U.U.U.U.U.U.U.U.U.U.U.U.U.U.U.",
").).).).U.U.U.U.U.U.U.U.U.U.U.).F.:XQ # t.:.p r.S.C.Z.oXm M q.s t.W ; C -Xh.X.-XY.Y.Y.).).F.F.I.U.U.U.U.U.U.U.U.U.U.U.U.U.U.U.U.",
").).).).U.U.U.U.U.U.U.U.U.U.).).H.v.&Xa ^ V. .m P.H.C.C.e., q.f 0.C . -XQ.Q.Q.OXY.Y.Y.Y.).|.Y.I.U.U.U.U.U.U.U.U.U.U.U.U.U.U.U.U.",
").).).).U.U.U.U.U.U.U.U.).).).).|.`.@XO.; t.t.7 ( |.g.D.S.q O.Z O.o =.@XP.H.@XA.Y.Y.).).).F.F.I.U.U.U.U.U.U.U.U.U.U.U.U.U.U.U.U.",
").).).).U.U.U.U.U.U.U.U.).).).H.).H.P.XXW , N.:.4 f.|.F.C.k V.p @ :.&XS.P.P.P.oXY.Y.).).).Y.I.I.U.U.U.U.U.U.U.U.U.U.U.U.U.U.U.U.",
").).U.U.U.U.U.U.).).).).).).).Y.F.T.Y.P.-XZ @ Q K * ) >.9 u s @ N.-XT.Q.OXP.H.OX).).).).K.H.K.F.U.U.U.U.U.U.U.U.U.U.U.U.U.U.U.U.",
").).U.U.U.U.U.U.).).).).).).).Y.).D.$X.XS.-Xr.a 8 o X X o 6  .S..XQ.oXQ.H.(.H.A.).).).).(.K.I.I.U.U.U.U.U.U.U.U.U.U.U.U.U.U.U.U.",
"U.U.U.U.U.U.U.U.).).).).).).).Y.).{.A.XXS.XXXX-XT.f.h.k.H.U.&XXXQ..XD..X(.H.{.(.).).).(.).H.I.K.U.U.U.U.U.U.U.U.U.U.U.U.U.U.U.U.",
"U.U.U.U.U.U.U.U.).).).).).).).).H.Q.@XA.XXQ.P..XoXT.:XT.).oXQ.P.U.Q.T..XH.(.H.).).).).).K.(.F.H.U.U.U.U.U.U.U.U.U.U.U.U.U.U.U.U.",
"U.U.U.U.U.U.U.U.).).U.U.U.U.U.U.T.).T.).U.U.U..XT.T.H.H.T.T.U.U.U.U.T.).).).).).).).I.I.I.I.K.).U.U.U.U.U.U.U.U.U.U.U.U.U.U.U.U.",
"U.U.U.U.U.U.U.U.).).U.U.U.U.U.U.).T.).T.U.U.T.U.H.T.H.H.T.T.U.).U.T.).T.).).).).).).I.I.I.I.).(.U.U.U.U.U.U.U.U.U.U.U.U.U.U.U.U.",
"U.U.U.U.U.U.U.U.).U.U.U.U.U.U.U.T.).T.U.U.T.U.T.T.G.T.).T.T.Y.Y.T.U.U.U.).).U.U.I.I.I.I.).I.).U.U.U.U.U.U.U.U.U.U.U.U.U.U.U.U.U.",
"U.U.U.U.U.U.U.U.).U.U.U.U.U.U.U.U.T.U.U.T.U.T.U.T.T.).T.).T.Y.Y.U.T.U.U.).).K.P.I.I.I.).).).).).U.U.U.U.U.U.U.U.U.U.U.U.U.U.U.U.",
"U.U.U.U.U.U.U.U.U.U.U.U.U.U.U.U..XP.U.U.T.G.T.).).).).U.).).).Y.Y.F.G.I.).).K.).I.I.I.).).).T.).U.U.U.U.U.U.U.U.U.U.U.U.U.U.U.U.",
"U.U.U.U.U.U.U.U.U.U.U.U.U.U.U.U.U.U.U.U.H.H.).F.).).U.U.I.).F.Y.I.).).I.P.K.K.H.I.I.).).T.T.).T.U.U.U.U.U.U.U.U.U.U.U.U.U.U.U.U.",
"U.U.U.U.U.U.U.U.U.U.U.U.U.U.U.U.P.U.T.T.G.T.).).P.K.OXP.).).).).Y.F.I.F.I.I.I.I.H.K.).).).T.T.).U.U.U.U.U.U.U.U.U.U.U.U.U.U.U.U.",
"U.U.U.U.U.U.U.U.U.U.U.U.U.U.U.U.P.).).T.G.H.).H.XXP.XXK.).).).F.).|.I.I.F.I.F.I.K.H.).).T.).T.U.U.U.U.U.U.U.U.U.U.U.U.U.U.U.U.U."
};
