/* XPM */
static char *_9844f1e86b849fdf12908b126112d723qIXDlHeaPvNfn0D[] = {
/* columns rows colors chars-per-pixel */
"64 64 218 2 ",
"   c #733B4D",
".  c #794A59",
"X  c #8D435A",
"o  c #92425D",
"O  c #8E4A61",
"+  c #994C65",
"@  c #9E4D68",
"#  c #9C566C",
"$  c #995B71",
"%  c #A84869",
"&  c #B7486E",
"*  c #B94E74",
"=  c #A85A73",
"-  c #B35576",
";  c #B35E7C",
":  c #B95878",
">  c #AB4B70",
",  c #90626F",
"<  c #9B6474",
"1  c #976D74",
"2  c #976474",
"3  c #867B7C",
"4  c #956B74",
"5  c #AD6A7D",
"6  c #A56677",
"7  c #C24D74",
"8  c #C5537A",
"9  c #C3587C",
"0  c #C6527A",
"q  c #C3607F",
"w  c #9E7F81",
"e  c #AA6D83",
"r  c #BC6381",
"t  c #BA6984",
"y  c #A57A84",
"u  c #B97688",
"i  c #B87F92",
"p  c #C95982",
"a  c #CD6A8D",
"s  c #C76689",
"d  c #D4658C",
"f  c #D16A8E",
"g  c #DA648D",
"h  c #C6778E",
"j  c #DC6A92",
"k  c #D56D90",
"l  c #D37494",
"z  c #CB7B94",
"x  c #7E8786",
"c  c #848989",
"v  c #8B8F90",
"b  c #919495",
"n  c #979D9E",
"m  c #A4888B",
"M  c #AD8B94",
"N  c #B58B93",
"B  c #B98D95",
"V  c #B98A96",
"C  c #A89999",
"Z  c #BB949C",
"A  c #B59B9F",
"S  c #B69196",
"D  c #B6848F",
"F  c #BB9CA2",
"G  c #A99EA2",
"H  c #9DA3A5",
"J  c #A4ACAD",
"K  c #ACABAE",
"L  c #A7A7A7",
"P  c #B3AAAC",
"I  c #BCABAC",
"U  c #B8A4A6",
"Y  c #A8B1AE",
"T  c #B4B2AE",
"R  c #B6ADB0",
"E  c #BAAEB0",
"W  c #ABB3B4",
"Q  c #AFB9BB",
"!  c #AFB7B8",
"~  c #B5B1B3",
"^  c #BEB1B0",
"/  c #B6B8B6",
"(  c #BDB5B8",
")  c #B5BCBD",
"_  c #BBBBBC",
"`  c #B8B8B7",
"'  c #C48799",
"]  c #D18C9E",
"[  c #C3929A",
"{  c #CD95A2",
"}  c #C39BA3",
"|  c #CA9CA5",
" . c #C691A1",
".. c #D49CA8",
"X. c #D89AA9",
"o. c #D89FB2",
"O. c #E49BAD",
"+. c #EA9CAE",
"@. c #E69DB0",
"#. c #CFA1AA",
"$. c #C7A5A9",
"%. c #D4A2AB",
"&. c #DAA2AB",
"*. c #CAAFB4",
"=. c #DBAAB8",
"-. c #D8A9B3",
";. c #C3B3B4",
":. c #C4B5B9",
">. c #CBB6BA",
",. c #C3BBBD",
"<. c #CBBBBD",
"1. c #C8B3B4",
"2. c #D6B8BC",
"3. c #E2A2AE",
"4. c #E4A3B2",
"5. c #ECA2B3",
"6. c #E1A8B5",
"7. c #E7ABBA",
"8. c #E3B0BF",
"9. c #F2ABBB",
"0. c #B7C0BF",
"q. c #D4C0BF",
"w. c #B4BEC0",
"e. c #BBBFC0",
"r. c #C5BEC0",
"t. c #CDBEC3",
"y. c #D4BFC3",
"u. c #DEBDC3",
"i. c #DDB3C1",
"p. c #E4B6C5",
"a. c #FEB4CB",
"s. c #BDC3C4",
"d. c #BBC8C8",
"f. c #C2C4C4",
"g. c #CDC2C3",
"h. c #CDC5C9",
"j. c #C3CBCD",
"k. c #CBCDCD",
"l. c #C4C7CA",
"z. c #D5C2C5",
"x. c #DCC3C5",
"c. c #D4C6CB",
"v. c #DDCCCC",
"b. c #D4C7CB",
"n. c #CBD1CF",
"m. c #D1D1CF",
"M. c #C9CED1",
"N. c #D9CED2",
"B. c #CAD2D2",
"V. c #CBD7D8",
"C. c #D5D3D4",
"Z. c #DDD4D4",
"A. c #DDD5D8",
"S. c #D4DADC",
"D. c #DCDBDB",
"F. c #E3C3C6",
"G. c #E3C4CA",
"H. c #E8C9CC",
"J. c #F5C2CE",
"K. c #EACCD3",
"L. c #E4CED0",
"P. c #F7C8D7",
"I. c #E3D3D5",
"U. c #EAD2D6",
"Y. c #E3DBDE",
"T. c #EBDBDC",
"R. c #E5D6DA",
"E. c #F4DBDD",
"W. c #F6D3DA",
"Q. c #E4E1DF",
"!. c #EEE0DF",
"~. c #DDDFE1",
"^. c #D7DFE1",
"/. c #FACFE0",
"(. c #E5DCE1",
"). c #EBDDE2",
"_. c #F4DDE3",
"`. c #FADEE3",
"'. c #FEDEEA",
"]. c #F7D7E2",
"[. c #DAE4E5",
"{. c #DBE6E8",
"}. c #E4E3E4",
"|. c #ECE2E4",
" X c #EBE3E8",
".X c #E4ECED",
"XX c #ECECEC",
"oX c #EBE9E7",
"OX c #F4E2E5",
"+X c #FAE3E5",
"@X c #FFE9E7",
"#X c #F5E4EA",
"$X c #FAE5EC",
"%X c #F4EAEC",
"&X c #FCE9EE",
"*X c #E5EFF1",
"=X c #EAEEF0",
"-X c #FEE6F0",
";X c #FFE6F1",
":X c #F7ECF1",
">X c #FEEAF1",
",X c #FFEDF2",
"<X c #FDECF2",
"1X c #FFEDFB",
"2X c #ECF3F4",
"3X c #ECF9FA",
"4X c #EEF7F8",
"5X c #F5F4F4",
"6X c #FCF3F5",
"7X c #FFF9F7",
"8X c #F4F6FA",
"9X c #FEF4FA",
"0X c #F5FCFC",
"qX c #FFFDFF",
"wX c #FFFFFF",
"eX c #FDFEFE",
"rX c #FDFDFD",
"tX c #F1FEF7",
/* pixels */
"$X$X$X$X$X$X$X$X$X$X$X$X$X$X$X$X$X$X$X$X$X$X$X$X$X$X$X$X$X$X$X$X$X$X$X$X$X$X$X$X$X$X$X$X$X$X$X$X%X#X$X$X$X$X$X$X$X$X$X$X$X-X#X$X",
"$X$X$X$X$X$X$X$X$X$X$X$X$X$X$X%X$X$X$X$X$X$X$X$X$X$X$X$X$X$X$X$X$X$X$X$X$X$X$X$X$X$X$X$X$X$X$X$X#X-X$X$X$X$X$X$X$X$X$X$X%X#X$X$X",
"$X$X$X$X$X$X$X$X$X$X$X$X$X$X$X$X$X$X$X$X$X$X$X$X$X$X$X$X$X$X$X$X$X$X$X$X$X$X$X$X$X$X$X$X$X$X$X$X$X$X$X$X%X$X$X$X$X$X$X$X$X$X$X$X",
"$X$X$X$X$X$X$X$X$X$X$X$X$X$X$X$X$X$X$X$X$X$X%X$X$X$X$X$X$X$X$X$X$X$X$X%X$X$X$X$X$X%X$X$X$X$X$X$X$X$X$X$X$X$X$X$X$X$X$X$X$X$X$X$X",
"$X$X$X$X$X$X$X$X$X$X$X$X$X$X$X$X$X$X$X$X$X$X$X#X$X$X$X$X$X$X$X$X$X$X$X$X$X$X$X$X$X$X$X$X$X$X$X$X$X$X$X$X$X$X$X$X$X$X$X$X$X$X$X$X",
"$X$X$X$X$X$X$X$X$X$X$X$X$X$X$X$X$X$X$X$X$X$X$X-X$X$X$X$X$X$X$X$X$X$X$X$X$X$X#X%X$X$X$X$X$X$X$X$X$X$X$X$X$X$X$X$X$X$X$X$X$X$X$X$X",
"$X$X$X$X$X$X$X%X$X$X%X$X$X$X$X$X$X$X$X$X$X$X%X#X%X#X$X$X$X$X$X$X$X$X$X$X$X$X-X#X$X$X$X$X$X$X$X$X$X$X$X$X$X$X$X$X$X$X$X$X$X$X$X$X",
"$X$X$X$X$X$X$X$X$X$X$X$X$X$X$X$X$X$X$X$X$X$X$X$X#X-X$X$X$X$X$X$X$X$X$X$X$X$X$X$X$X$X$X$X$X$X$X$X$X$X$X$X$X$X$X$X$X$X$X$X$X$X$X$X",
"$X$X$X$X$X$X$X$X$X$X%X#X$X$X$X$X$X$X$X$X$X$X$X$X$X$X$X$X$X$X$X$X$X$X$X$X$X$X$X$X$X-X#X$X$X$X$X$X$X$X$X$X$X$X$X$X$X$X$X$X$X$X$X$X",
"$X$X$X$X%X$X$X$X$X$X$X$X$X$X$X$X$X$X$X$X$X$X$X$X$X$X$X$X$X$X$X$X$X$X$X$X$X$X$X$X%X#X$X$X$X$X$X$X$X$X$X$X$X$X$X%X$X$X$X$X$X$X$X$X",
"$X$X$X$X$X$X$X$X$X$X$X$X$X$X$X$X$X%X$X$X$X$X$X$X$X$X$X$X$X$X$X$X$X$X$X$X$X$X$X$X$X$X$X$X$X$X#X%X$X$X$X$X$X$X$X$X$X%X$X$X$X$X$X$X",
"$X$X$X$X$X$X$X$X$X$X$X$X$X$X$X$X$X$X$X$X$X$X$X$X$X$X$X$X$X$X$X$X$X$X$X$X$X$X$X$X$X$X$X$X$X$X$X$X$X$X$X$X$X$X$X$X$X$X$X$X$X$X$X$X",
"$X$X$X$X$X$X$X$X$X$X$X$X$X$X$X$X$X$X$X$X$X$X$X$X$X$X$X$X$X$X$X$X$X$X$X$X$X$X$X$X$X$X$X$X$X$X$X$X%X$X$X$X$X$X$X$X$X$X$X$X$X%X#X-X",
"$X$X#X%X$X$X$X$X$X$X$X$X$X$X$X$X$X$X$X$X$X$X$X$X$X$X$X$X$X$X$X$X$X$X$X$X$X$X$X$X$X$X$X$X$X$X$X$X$X$X$X$X$X$X$X$X$X$X$X$X$X$X$X#X",
"$X$X$X$X$X$X$X$X$X$X$X$X$X$X$X$X$X$X$X$X$X$X$X$X$X$X$X$X$X$X$X$X$X$X$X$X$X$X$X$X$X$X$X$X$X$X$X$X$X$X$X$X$X$X$X$X$X$X$X$X$X$X$X$X",
"$X$X$X$X$X$X$X$X$X%X$X$X%X$X$X$X$X$X$X$X$X$X$X$X$X#X$X$X$X$X$X-X$X$X$X$X%X$X$X$X$X$X$X%X$X$X$X$X$X$X$X$X$X$X$X$X$X$X$X$X$X$X$X$X",
"$X$X$X$X$X$X$X$X$X$X#X$X$X$X$X$X-X-X#X%X#X$X_.<X$X$X'.$X$X-X'.'.$X$X$X$X$X#X-X$X$X$X:X%X:X#XOX$X%X$X$X-X$X$X$X$X$X&X%X$X$X$X$X$X",
"$X$X$X$X$X$X$X$X$X$X$X$X%X$X$X$X#X-X-X$X$X-X<X'.'.$X$X$X-X'.$X$X`.$X>X#X;X#X'.-X1X).:Xe.P T.>X$X$X#X$X$X&X$X%X#X$X$X$X$X$X$X$X$X",
"$X%X$X$X'.$X$X$X$X$X$X$X$X$X'.'.-X-X#X:X#X;Xu.i.$X$X$X%X%X%X#X:X&X%X#X#X$X-X'.-X_.1Xt.h.(.r.>X'.$X$X$X#X$X$X$X$X$X$X$X$X$X$X$X$X",
"$X$X$X$X$X$X$X$X$X-X'.$X$X$X-X$X-X$X'.OX-XK.S F W.@XOX%X%X%XOX$X%X X%XOX-X_.-X$X;X9Xh.%XN.).$X&X#X$X-X$X$X$X$X$X$X$X$X$X$X$X$X$X",
"$X$X$X$X$X$X$X$X$X$X'.$X$X$X$X$X$X$X$XOX<XF } #.#.@X@XOXoX@X@XE.&X$X%XOX$X6X&X_.(.~.R ).,.Y.,X&X$X$X$X&X$X$X'.$X$X$X$X$X$X$X$X$X",
"$X$X$X$X$X$X$X$X$X$X$X$X$X$X$X$X$X$X$X@X].N 6.=.%.-.E.@X@XU.} [ Z E.6X&X|.h.,.<.t.N.).rXY.,.b.).:X-X%X$X$X$X$X$X$X'.$X$X$X$X$X$X",
"'.$X$X$X$X$X$X$X$X$X$X$X$X$X$X$X$X`.$X6Xx.} 6.@.4.{ | @XW.S &.&...V K.y.,.m.%X8XqXqX8XqXeX5XD.~ R._.%X$X#X$X$X$X'.$X$X$X$X$X$X$X",
"$X$X$X$X%X$X$X$X$X$X$X$X$X$X$X$X$X$XOX6Xp.V 7.@.5.3.[ H.} &.9.h ] 6.N OXeX0XeXeXrXrXqXrXeXeX0XqXK N.$X<X$X$X-X$X-X$X$X$X$X$X$X$X",
"'.-X$X'.$X$XOX-X#X-X$X'.$X'.$X$X$X$XOX@XK.B 9.+.+.5...| &.&.5.3.z =.} z.eXtXrXeXeXeXeXrXeXqX0XqX:XG %XOX,X-X$X$X'.;X$X'.$X$X#X:X",
"$X$X$X$X-X<X:X$X$X_.-X$X$X-X$X'.@X$X%X&XE.N 4.+.5.+.&.[ S &.3.3.' =.A T.eX7X0XeXqXeXqXqXrXrXqXqXqXr. X5X).$X_.>X$X$X'.>XOX$X>X_.",
"$X$X'.:X X).%XOX$X$X$X$X&X#X#X$X%XOX%X|.&X2.] 5.O.3.&.4 $.-.$.%.1 M b.7XeXqXqXrXqXeXeX0X0XqXqX5X5Xh.( :X%X:X#X&X-XOX>X$X$X$X$X<X",
"'.$X$X$X$X%X%X:X#X$X$X-X$X%X&X#X$X6XOX:X_.$X#.{ 9.6.N F.E.@X1.m *.A eX7XeXqX7XqXqXqXqXqXeXqXeXqXY.A.,.r.:.Z.&X%X#X-X#X$X#X$X_.$X",
"'.$X-X X&X<X#X$X$X<X-X].K.`.$X1X$X+X_.%X9X-X&X2.m N 2.U.q.`.@XE.z.I.!.eXeX7X7XqXqX}.}.eXqXrXqX7XqXqXqXqX7Xh.R #X,X).:X-X#X-X>X$X",
"-X$X-XOX#X$X'.;X-Xi.2 e $ . e =.;X'.1X).r.R.%Xq.m } @X+X+XE.q.v.L.v.q.Q.7XeXqX6X` k.XXqXeXqXqXqXrXrXrXrXqXqX XK #X<X,X$X$X#X$X$X",
"$X$XOX<X$X#X;X'.'   ; t > r r + e /.1X( C.Y.L q.^ !.+XE.E.F.q.w $.E.+XC ` T D.` }.eXqX0XeXeXeXqXqXqXtXqX5XrXqXA.R |.b.$X$X$X$X$X",
"$X>XOX:X#X:X-Xo.O s a % a d & a r $ p.'.:.Y.%X7XU !.!.@XU.F.F.S } *.+Xq.!.D.x oXqXeXeXeXeXqXeXrXqX0XqXqXeXqXrXrXf.( R.r.$X>X$X'.",
"#X-X#X#X%X-X'.e - d * 9 f : 8 d > s # e M G.>XK.M E.+XOX1.A F.S w H.!.q.OXZ.m.7X8XqXeXeXeX0XqXeX=X[.C.S._ n.}.5XeX9XrXt.R.@X$X$X",
"'.-X$X%X X;XP.e - g & d s : j 7 p a > t O < 2 , 1 H.+X+X!.U.>.U $.@X+XT !.q.6XeXqXqXqXeXeX.Xe./ B.s.n s.L .XoXrX%X,.A.|.$X$X&X_.",
"#X-X$X'.-X-XP.$ : d * l - - d 7 j p p s > h @ 5 < J.+XE.+X@X!.L.v.@XU q.v.Z.eX7XqXrX=Xd.W S.^.J ^.eX_ L qXqXrXY.h.%X:X#X&X$X+X>X",
"$X$X$X$X%X'.$X$ + ; o ; + h 8 0 g p 9 f > z a.5 $ | @XE.+XQ.!.!.!.v.^ q.` %XrXqX=Xe.w.V.W [.8XM.f.^.R 2XqXqXt.h.%X%X#X<X$X$X$XOX",
":X#X#X$X%X#X<XM   D =.P.7.; 9 0 g & d a X &.1X6.6 6 J.&Xq.;.>.I ^ g.7X7X7XeXeXk.J J 3X3XB.w.0X^.v / 5XqX5Xr.R.6X#X$X$X#XOX&X&X$X",
"-X#X#X-X%X:X%XI.m <XK.-XW.5 q 7 j p p d X =.$X$XD < u #.1.OX6XC Z.6XeXeXrX2Xn 0.0X^.w.3X*XQ *X[.b =XqX:X,.R.9X).:X#X$X#X&X&X$X$X",
"$X'.'.$X#X&X|.&X>.3 2.>X8.5 : 8 g p p d X  .$X`.E.y , 1 ,X+Xx.b.7XqXtXqX}.! S.W {.3Xd.^.3Xw.B.w.rXrXA.( |.9XOX:X$X$X>XOX$X#XOX$X",
"'.-X$X$X#X%X%X#XOXC OX_.B < u : g p * l = < E.OX@XH.$.@XE.T.q.7XqXeXrXn.x *X3Xd.d.3XV.d.3Xw.H 2XrXZ.r.%X<XOX-X$X$X$X$X-X$X$X&X$X",
"-X$X$X$X$X#X$X>Xy.U.U.*.W.V 6 # r r @ e $ . ;.>XE.+X@XE.@Xt.Q.7XrXqXf.0.j.s.*X{.Q 3X[.d.S.J 8XqXh.:.:X1X_.<X_.-X$X$X-X$X$X$X$X$X",
"$X$X$X-X#X$X$X&X>._.`._.>XG.1 V V z i =.F u.>.T.OX+X+X`.I.;.7X0X0X0.x 4X*XJ *X{.Q 3X{.n J 8X8XK b.7X%X).<X-X#X$X$X'.'.$X$X$X$X$X",
"$X$X#X%X$XOX%X$XT.*.U._.U.$._.<X;X1X-X1XI.h.5XT T._.+XU.I oX0XtXY n.! B.3Xw.M.0XW l.W M.qX XL (.:X%XOX<X:X_.-X$X$X'.$X$X$X$X$X$X",
"$X$X$X$X%X%X#X$X>X$Xy.y.y.I.>X_.'.'._.#X6XL oXoX^ >.;.1.6XqX2XJ b rXn.Q eXJ J j.K l.8XrXh.r. X<X:X_.$X%X'.$X-X$X$X$X$X$X$X$X$X$X",
"'.$X$X$X@X$X$X$X$X&X&X@X$X-X'.$X'.-X$X'.&X:.I qXrX6X6XeX:XY b f.c j.H c ) _ ) XXrXrX XP h.&X<XOXOX,X$XOX$X-X-XOX$X$X$X$X$X%X-X$X",
"$X$X'.$X$X$X$X`.OX>X$X$X$X$X`.$X-X$X#X6Xg.).rXOX%X6XA./ s.D.D.D.D.S.~.=XXXqXqXeX XL ( |.9X#X`.$X$X$X+X&X:X_.$X$X$X$X$X$X-X$X$X$X",
"$X#X$X+X'.$X$X$X-X$XOX$X$X$X-X%X$X#X#XOXf.%X~ I 1.<.b.5XeX0XqXqXrXqXrXeXqXrXC.( P Y.6X1X+X$X$X$X`.$X$X_.-X-X_.;X:X$X#X$X$X$X$X-X",
"#X%X$X$X$X$X$X$X%XOX,X$X_.>X#X:X X;X&X$X,._ C.%X&XI.g.f.s.k.(.(.Q.Y.C.r.~ K :.(.1X#X$X$X$X@X$X`.$X$X$X$X#X#X1X#X#X$X$X#X;X$X$X$X",
"$X$X$X$X$X$X$X$X$X$X$X&X$X#X&X#X%X$X$X$X:X,X<X%X$X&X&X#XY.N.t.:.:.:.r.c.R.&X,X>X$X$X$X$X$X$X$X#X$X$X$X$X$X$X$X$X$X$X$X$X$X$X$X$X",
"$X$X$X$X$X$X$X$X$X$X#X$X$X$X$X$X$X$X#X$X$X$X$X$X$X$X$X:X>X,X<X<X<X1X<X>X>X$X$X#X$X$X$X$X$X$X$X%X$X$X$X$X$X#X$X$X$X$X#X&X$X$X$X$X",
"$X$X$X$X$X$X$X$X$X$X$X$X$X$X$X$X$X$X$X$X$X$X$X$X-X$X$X$X#X'._.#X'.#X$X$X#X$X$X-X$X$X$X$X$X$X$X$X$X$X$X$X$X$X$X$X$X$X$X$X$X$X$X$X",
"$X$X$X$X$X$X$X$X$X$X$X$X$X$X$X$X-X$X$X$X$X$X$X-X$X$X$X$X&X-X>X&X$X$X$X$X$X$X$X#X$X$X$X$X$X$X$X$X$X$X$X$X$X$X$X$X$X$X$X$X$X$X$X$X",
"$X$X$X$X$X$X$X$X$X$X$X$X$X$X$X$X$X$X$X$X$X$X$X$X$X$X$X$X#X#X$X$X&X$X$X$X$X-X$X$X$X$X$X$X$X$X$X$X$X$X$X$X$X$X$X$X$X$X$X$X$X$X$X$X",
"$X%X$X$X$X$X%X$X$X$X$X$X$X$X$X$X$X$X$X$X$X$X$X$X$X$X$X$X$X$X$X$X$X$X-X$X$X$X$X$X$X$X$X$X$X$X$X$X$X$X$X$X$X$X&X$X$X$X$X$X$X$X$X$X",
"$X$X$X$X$X$X$X$X$X$X%X$X$X$X$X$X$X$X$X$X$X:X-X$X$X$X$X$X$X$X$X$X#X$X$X$X$X#X$X:X%X$X$X$X$X$X$X$X$X$X$X$X$X$X$X$X$X$X$X$X$X$X$X$X",
"$X$X$X$X$X$X$X$X$X$X$X$X$X$X$X$X$X$X$X#X$X$X$X$X$X$X$X$X$X$X$X$X$X$X$X&X$X$X$X$X$X$X$X$X$X$X$X$X$X$X$X$X$X$X$X$X$X$X$X$X$X%X$X$X",
"$X$X$X$X$X$X$X$X$X$X$X$X$X$X$X$X$X$X$X$X$X$X$X$X$X$X$X%X$X$X$X$X$X$X$X$X$X$X$X$X$X$X$X$X$X$X$X$X$X$X$X$X$X$X$X#X$X$X$X$X$X$X$X$X",
"$X$X$X$X$X$X$X$X$X$X$X$X$X$X$X$X$X$X$X$X%X$X$X$X$X$X$X$X$X$X$X$X$X$X$X$X$X$X$X$X$X$X$X$X$X$X$X$X$X$X$X$X$X$X$X%X$X$X$X$X$X$X%X$X",
"$X$X$X$X$X$X$X$X$X$X$X$X$X%X$X$X$X$X$X$X#X$X$X$X$X$X$X$X$X$X$X$X$X$X$X$X$X$X$X$X$X$X%X$X$X$X$X$X$X$X$X$X$X$X$X$X$X$X$X$X$X$X$X$X",
"$X%X$X$X$X$X$X$X$X$X$X$X$X$X$X$X$X$X$X$X$X$X$X$X$X$X$X$X$X$X$X$X$X$X$X$X$X$X$X$X$X$X#X$X$X$X$X$X$X$X$X$X$X$X$X$X$X$X$X$X$X$X$X$X",
"$X$X$X$X$X$X$X$X$X$X$X$X$X$X#X$X$X$X$X$X$X$X$X$X$X$X$X$X$X$X$X$X$X$X$X$X$X$X$X$X$X$X$X$X$X$X%X$X$X$X$X$X$X$X$X$X$X$X$X$X$X$X$X$X",
"$X$X$X$X$X$X$X$X$X$X$X$X$X$X$X$X$X$X$X$X$X$X$X$X$X$X$X$X%X$X$X$X$X$X$X$X$X$X$X$X$X$X$X$X$X$X$X$X$X$X$X$X$X$X$X$X$X%X$X$X$X$X$X$X",
"$X$X$X$X$X$X$X$X$X$X$X$X$X$X$X$X$X$X$X$X$X$X$X$X$X$X$X$X$X$X$X$X$X$X$X$X$X$X$X%X$X$X$X$X$X$X$X$X$X$X$X$X$X$X$X$X$X$X$X$X$X$X$X$X",
"$X$X$X$X$X$X%X$X$X$X$X$X$X$X$X$X$X$X$X$X$X$X#X%X$X$X$X$X$X$X$X$X$X$X$X$X$X$X$X$X$X$X$X$X$X$X$X$X$X$X$X$X$X$X$X$X$X$X$X$X$X$X$X$X"
};
